<?xml version="1.0" encoding="utf-8"?>
<!-- Generator: Adobe Illustrator 23.0.1, SVG Export Plug-In . SVG Version: 6.00 Build 0)  -->
<svg version="1.1" id="Layer_1" xmlns="http://www.w3.org/2000/svg" xmlns:xlink="http://www.w3.org/1999/xlink" x="0px" y="0px"
	 viewBox="0 0 40 37" style="enable-background:new 0 0 40 37;" xml:space="preserve">
<style type="text/css">
	.st0{fill:none;stroke:#D17C19;stroke-miterlimit:10;}
	.st1{display:none;fill:#D17C19;}
	.st2{fill:#D17C19;}
</style>
<path class="st1" d="M1.89,11.98c0.43,0.69,1.12,1.22,1.91,1.41c0.46,0.11,0.93,0.1,1.4,0.1c0.6,0.76,1.19,1.53,1.79,2.29
	c0.28,0.36,0.88,0.05,0.88-0.36c-0.01-0.64-0.02-1.29-0.03-1.93c0.43,0,0.86,0,1.29,0c0,1.24,0,2.47,0,3.71c0,2.26,0,4.52,0,6.77
	c0,0.52,0,1.04,0,1.56c0,0.66,1.03,0.66,1.03,0c0-1.41,0-2.81,0-4.22c0-2.26,0-4.52,0-6.77c0-0.35,0-0.69,0-1.04
	c0.06,0,0.13,0,0.19,0c1.52-0.03,2.88-1.12,3.11-2.64c0.13-0.86,0.04-1.78,0.04-2.64c0-0.32,0.02-0.65-0.01-0.97
	C13.42,6.5,13.1,5.8,12.58,5.28c-0.65-0.65-1.47-0.88-2.34-0.92c-0.01-0.61-0.04-1.23,0.01-1.83c0.08-0.96,0.9-1.5,1.8-1.5
	c0.66,0,1.31,0,1.97,0c0,0.41,0,0.83,0,1.24c0,0.25-0.02,0.52,0.04,0.77c0.14,0.52,0.61,0.84,1.13,0.86c0.77,0.03,1.54,0,2.31,0
	c2.39,0,4.78,0.05,7.17,0C25,3.9,25.32,3.8,25.56,3.56c0.29-0.29,0.34-0.67,0.34-1.06c0-0.49,0-0.98,0-1.47c0.63,0,1.27,0,1.9,0
	c0.62,0,1.21,0.06,1.66,0.58C29.8,2,29.85,2.47,29.85,2.96c0,0.52,0,1.04,0,1.56c0,0.12,0,0.24,0,0.36c0,0.66,1.03,0.66,1.03,0
	c0-0.86,0.09-1.77-0.04-2.62c-0.2-1.33-1.39-2.24-2.7-2.25C26.75,0,25.36,0,23.98,0c-2.34,0-4.68,0-7.01,0c-1.61,0-3.21,0-4.82,0
	c-0.96,0-1.84,0.32-2.43,1.12C9.05,2.04,9.2,3.28,9.21,4.36c-1.49,0-2.98,0-4.46,0c-1.16,0-2.24,0.5-2.86,1.51
	C1.35,6.75,1.43,7.74,1.43,8.72C1.43,9.82,1.29,11,1.89,11.98z M23,1.03c0.62,0,1.25,0,1.87,0c0,0.37,0,0.75,0,1.12
	c0,0.23,0.11,0.69-0.19,0.72c-0.27,0.03-0.56,0-0.83,0c-0.54,0-1.08,0-1.62,0c-2.29,0-4.59,0-6.88,0c-0.05,0-0.14,0.02-0.2-0.01
	c-0.17-0.07-0.11-0.35-0.11-0.49c0-0.45,0-0.9,0-1.35c0.42,0,0.84,0,1.25,0C18.53,1.03,20.77,1.03,23,1.03z M2.48,7.18
	c0.18-1.14,1.17-1.8,2.27-1.8c0.85,0,1.7,0,2.54,0c0.92,0,1.85,0,2.77,0c0.33,0,0.64,0,0.96,0.11c0.62,0.21,1.13,0.71,1.33,1.33
	c0.14,0.43,0.11,0.87,0.11,1.31c0,0.59,0,1.18,0,1.78c0,0.48,0,0.94-0.23,1.39c-0.38,0.71-1.09,1.14-1.89,1.16
	c-1.01,0-2.02,0-3.03,0c-0.28,0-0.52,0.24-0.51,0.51c0,0.31,0.01,0.62,0.01,0.93c-0.22-0.28-0.43-0.55-0.65-0.83
	c-0.23-0.29-0.38-0.6-0.79-0.62c-0.5-0.02-1,0.05-1.49-0.11c-0.65-0.22-1.17-0.76-1.36-1.42c-0.1-0.36-0.08-0.74-0.08-1.11
	c0-0.52,0-1.04,0-1.55C2.46,7.91,2.43,7.53,2.48,7.18z M38.48,20.94c-0.29-1.43-1.57-2.44-3.02-2.46c-1.53-0.02-3.06,0-4.59,0
	c0-1.35,0-2.71,0-4.06c0-2.16,0-4.33,0-6.49c0-0.5,0-1,0-1.51c0-0.66-1.03-0.66-1.03,0c0,1.36,0,2.73,0,4.09c0,2.16,0,4.33,0,6.49
	c0,0.49,0,0.99,0,1.48c-0.53,0.02-1.04,0.08-1.55,0.33c-1.15,0.56-1.74,1.74-1.74,2.98c0,0.89-0.01,1.78,0,2.66
	c0.03,1.74,1.41,3.12,3.15,3.16c0.02,0,0.05,0,0.08,0c0,1.22,0,2.44,0,3.67c-0.88,0-1.76,0-2.64,0c0-1.44,0.16-2.94-0.51-4.27
	c-0.48-0.95-1.31-1.73-2.29-2.16c-0.68-0.3-1.39-0.4-2.13-0.4c-0.22,0-0.43,0-0.65,0c0-0.32,0-0.65,0-0.97
	c0.82-0.3,1.57-0.82,2.16-1.48c0.51-0.57,0.9-1.23,1.19-1.93c0.45,0.11,0.93,0.03,1.32-0.25c0.56-0.41,0.85-1.08,0.91-1.76
	c0.07-0.81-0.3-1.75-0.95-2.22c0.23-0.71,0.31-1.46,0.19-2.24c-0.17-1.14-0.74-2.19-1.47-3.07c-0.16-0.19-0.32-0.38-0.51-0.54
	c-0.49-0.44-1.22,0.29-0.73,0.73c0.61,0.54,1.06,1.19,1.39,1.97c0.29,0.67,0.42,1.42,0.33,2.15c-0.03,0.25-0.09,0.49-0.16,0.72
	c-0.15,0.01-0.31,0.04-0.47,0.1c-0.02,0.01-0.04,0.02-0.06,0.03c-0.19,0.08-0.34,0.26-0.32,0.47c0.03,0.22,0.05,0.43,0.06,0.65
	c-0.26-0.38-0.57-0.73-0.91-1.03c-0.59-0.51-1.27-0.9-2.01-1.14c-0.43-0.14-0.88-0.21-1.31-0.36c-0.43-0.15-0.84-0.35-1.23-0.59
	c-0.4-0.25-0.73-0.55-1.07-0.87c-0.25-0.23-0.53-0.45-0.75-0.71c-0.14-0.16-0.35-0.18-0.53-0.11c-0.01,0-0.01,0.01-0.02,0.01
	c0,0,0,0-0.01,0c-0.06,0.02-0.11,0.05-0.17,0.1c0,0,0,0,0,0c-0.87,0.74-1.47,1.77-1.77,2.87c-0.02-0.19-0.04-0.38-0.06-0.56
	c-0.02-0.28-0.04-0.57-0.02-0.85c0-0.07,0.01-0.13,0.02-0.2c0,0,0,0,0-0.01c0.01-0.05,0.02-0.1,0.02-0.14
	c0.05-0.25,0.12-0.48,0.21-0.72c0-0.01,0-0.01,0.01-0.02c0.01-0.03,0.03-0.06,0.04-0.09c0.03-0.07,0.07-0.14,0.1-0.21
	c0.08-0.15,0.17-0.29,0.27-0.42c0.01-0.01,0.01-0.02,0.02-0.03c0.03-0.04,0.06-0.08,0.09-0.11c0.06-0.07,0.12-0.14,0.19-0.21
	c0.07-0.07,0.14-0.14,0.21-0.2c0.04-0.03,0.07-0.06,0.11-0.09c0.03-0.02,0.03-0.02,0.02-0.02c0,0,0.01-0.01,0.04-0.03
	c0.38-0.28,0.79-0.49,1.2-0.63c1.56-0.55,3.31-0.47,4.93-0.24c0.28,0.04,0.55-0.07,0.63-0.36c0.07-0.24-0.08-0.59-0.36-0.63
	c-2.52-0.36-5.83-0.46-7.67,1.65c-0.68,0.78-1.1,1.79-1.11,2.83c-0.01,0.71,0.06,1.43,0.23,2.13c-0.66,0.46-1.04,1.42-0.97,2.24
	c0.06,0.66,0.32,1.31,0.86,1.72c0.41,0.32,0.92,0.42,1.4,0.29c0.22,0.54,0.5,1.05,0.86,1.52c0.63,0.83,1.45,1.49,2.41,1.86
	c0,0.34,0,0.67-0.01,1.01c-0.08,0-0.16,0-0.23,0c-0.56,0-1.12,0-1.68,0.12c-1.08,0.25-2.04,0.9-2.7,1.79
	c-0.64,0.85-0.91,1.87-0.91,2.93c0,0.66,0,1.32,0,1.99c-0.2,0-0.4,0-0.6,0c-0.67,0-1.35,0-2.02,0c0-1.19,0-2.38,0-3.57
	c0-0.09,0-0.17,0-0.26c0-0.66-1.03-0.66-1.03,0c0,2.29-0.04,4.59,0,6.89c0.02,1.12,0.69,2.1,1.74,2.5c0.38,0.14,0.77,0.16,1.17,0.16
	c0.97,0,1.93,0,2.9,0c3.16,0,6.33,0,9.49,0c1.08,0,2.16,0,3.24,0c0.16,0,0.32,0,0.49,0c1.2-0.02,2.28-0.82,2.57-2
	c0.11-0.43,0.08-0.88,0.08-1.32c0-0.7,0-1.4,0-2.1c0-1.32,0-2.64,0-3.96c0.47,0,0.93,0,1.4,0c-0.01,0.64-0.02,1.29-0.03,1.93
	c-0.01,0.41,0.59,0.73,0.88,0.36c0.6-0.76,1.19-1.53,1.79-2.29c0.38,0,0.76,0.01,1.13-0.05c0.69-0.11,1.35-0.47,1.8-1.01
	c0.48-0.56,0.75-1.27,0.77-2.01c0.01-0.32,0-0.65,0-0.97C38.56,22.72,38.66,21.78,38.48,20.94z M26.11,17.94
	c-0.03,0.53-0.37,1.19-0.88,1.13c0.15-0.58,0.22-1.17,0.24-1.77c0.11-0.16,0.21-0.33,0.3-0.5C26.02,17.09,26.13,17.58,26.11,17.94z
	 M13.81,17.94c-0.02-0.33,0.08-0.77,0.29-1.06c0.11,0.27,0.23,0.54,0.4,0.77c0.03,0.48,0.1,0.95,0.22,1.41
	C14.2,19.16,13.84,18.48,13.81,17.94z M15.53,17.51c-0.04-0.9,0.08-1.8,0.38-2.65c0.2-0.56,0.49-1.18,0.89-1.66
	c0.15,0.13,0.3,0.26,0.45,0.4c0.41,0.38,0.83,0.74,1.31,1.03c0.48,0.29,1,0.52,1.54,0.69c0.52,0.17,1.07,0.24,1.57,0.46
	c0.69,0.3,1.33,0.81,1.76,1.38c0.15,0.2,0.29,0.42,0.41,0.65c0.03,0.07,0.06,0.14,0.1,0.2c0,0,0,0,0,0c0.08,0.16,0.23,0.29,0.4,0.33
	c-0.15,0.89-0.48,1.74-1,2.5c-0.74,1.07-1.93,1.87-3.25,1.9c-0.35,0.01-0.68-0.03-1-0.11c-0.06-0.03-0.12-0.05-0.19-0.05
	C16.85,21.94,15.63,19.59,15.53,17.51z M19.34,23.71c0.07,0.01,0.14,0.02,0.21,0.03c0.33,0.03,0.66,0.03,0.98-0.01
	c0,0.24,0,0.48,0,0.72c-0.4,0-0.79,0-1.19,0C19.34,24.2,19.34,23.96,19.34,23.71z M19.34,25.64c0-0.05,0-0.11,0-0.16
	c0.4,0,0.79,0,1.19,0c0,0.88,0,1.77,0,2.65c0,0.33-0.04,0.67-0.41,0.79c-0.46,0.15-0.78-0.24-0.78-0.66
	C19.34,27.39,19.34,26.52,19.34,25.64z M13.81,29.63c0-0.7,0.03-1.38,0.33-2.03c0.4-0.85,1.12-1.55,2-1.88
	c0.55-0.21,1.1-0.24,1.67-0.24c0.16,0,0.32,0,0.48,0c-0.01,0.95-0.01,1.89,0.01,2.84c0.02,0.75,0.49,1.45,1.25,1.62
	c0.93,0.21,1.87-0.43,1.98-1.39c0.1-0.82,0.02-1.68,0.02-2.5c0-0.19,0-0.38,0-0.57c0.07,0,0.13,0,0.2,0c0.43,0,0.89-0.03,1.32,0.05
	c0.93,0.17,1.79,0.68,2.35,1.46c0.9,1.25,0.69,2.83,0.69,4.29c-0.95,0-1.89,0-2.84,0c-3.15,0-6.31,0-9.46,0
	C13.81,30.73,13.81,30.18,13.81,29.63z M29.07,35.69c-0.34,0.23-0.72,0.28-1.12,0.28c-0.88,0-1.77,0-2.65,0c-3.06,0-6.13,0-9.19,0
	c-1.16,0-2.32,0-3.48,0c-0.26,0-0.52,0-0.78,0c-0.65,0-1.24-0.31-1.53-0.91c-0.2-0.4-0.16-0.84-0.16-1.28c0-0.49,0-0.99,0-1.48
	c2.17,0,4.34,0,6.51,0c3.7,0,7.39,0,11.09,0c0.67,0,1.35,0,2.02,0c0,0.61,0,1.23,0,1.84C29.78,34.76,29.61,35.33,29.07,35.69z
	 M36.94,25.96c-0.48,0.5-1.07,0.62-1.73,0.62c-0.25,0-0.63-0.06-0.86,0.07c-0.12,0.07-0.2,0.2-0.29,0.31
	c-0.28,0.35-0.55,0.71-0.83,1.06c0-0.31,0.01-0.62,0.01-0.93c0-0.28-0.24-0.51-0.51-0.51c-1.01,0-2.02,0-3.03,0
	c-1.28-0.02-2.12-1.05-2.12-2.29c0-0.88-0.01-1.75,0-2.63c0.01-1.2,0.94-2.14,2.15-2.16c0.74-0.01,1.48,0,2.22,0c1,0,1.99,0,2.99,0
	c0.18,0,0.36,0,0.54,0c0.66,0.01,1.28,0.31,1.66,0.85c0.56,0.8,0.39,1.9,0.39,2.82C37.53,24.14,37.67,25.2,36.94,25.96z M6.73,11.01
	c0.91-0.52,1.83-1.03,2.74-1.55c0.35-0.2,0.32-0.69,0-0.89C8.55,7.99,7.64,7.42,6.73,6.84C6.52,6.71,6.32,6.75,6.17,6.87
	C6.04,6.95,5.95,7.09,5.95,7.29c0,1.09,0,2.19,0,3.28C5.95,10.96,6.39,11.2,6.73,11.01z M6.98,8.22C7.39,8.47,7.8,8.73,8.2,8.99
	C7.8,9.22,7.39,9.45,6.98,9.68C6.98,9.19,6.98,8.71,6.98,8.22z M34.86,22.14c-1.48,0-2.95,0-4.43,0c-0.66,0-0.66-1.03,0-1.03
	c1.48,0,2.95,0,4.43,0C35.52,21.11,35.52,22.14,34.86,22.14z M34.86,24.34c-1.48,0-2.95,0-4.43,0c-0.66,0-0.66-1.03,0-1.03
	c1.48,0,2.95,0,4.43,0C35.52,23.31,35.52,24.34,34.86,24.34z M23.54,34.64c-0.3,0-0.6,0-0.9,0c-2.1,0-4.2,0-6.3,0
	c-0.66,0-0.66-1.03,0-1.03c0.3,0,0.6,0,0.9,0c2.1,0,4.2,0,6.3,0C24.2,33.61,24.2,34.64,23.54,34.64z"/>
<path class="st2" d="M10.22,13.61c1.15,0.25,2.31,0.49,3.46,0.74c0.05,0.11,0.11,0.21,0.16,0.31c1.5,2.7,4.55,4.3,7.62,3.64
	c2.22-0.47,3.93-2.01,4.9-3.96c1.15-0.25,2.3-0.49,3.45-0.74c0.28-0.06,0.48-0.36,0.48-0.63c0-1.74,0-3.47,0-5.21
	c0-0.26-0.2-0.59-0.48-0.63c-0.63-0.08-1.25-0.17-1.88-0.25c-0.33-2.04-1.15-3.98-2.82-5.29c-1.17-0.92-2.59-1.41-4.07-1.55
	c-1.28-0.12-2.66,0-3.86,0.44c-1.77,0.64-3.17,1.94-3.99,3.63c-0.41,0.85-0.73,1.79-0.85,2.73c-0.71,0.1-1.42,0.2-2.13,0.3
	C9.94,7.18,9.74,7.51,9.74,7.77c0,1.74,0,3.47,0,5.21C9.74,13.25,9.94,13.55,10.22,13.61z M11.05,12.45c0-1.37,0-2.75,0-4.12
	c0.71-0.1,1.43-0.2,2.14-0.3c-0.49,1.57-0.51,3.28-0.07,4.86C12.43,12.75,11.74,12.6,11.05,12.45z M22.09,16.75
	c-2.39,0.97-5.09,0.07-6.61-1.97c-1.62-2.17-1.81-5.25-0.5-7.62c1.21-2.19,3.68-3.59,6.2-3.03c2.96,0.66,4.76,3.54,4.79,6.45
	c-0.01,0.97-0.21,1.95-0.6,2.85c-0.01,0.02-0.02,0.04-0.03,0.06C24.7,14.93,23.6,16.14,22.09,16.75z M27.27,10.58
	c-0.01-0.87-0.14-1.72-0.4-2.53c0.71,0.1,1.41,0.19,2.12,0.29c0,1.37,0,2.74,0,4.12c-0.69,0.15-1.37,0.29-2.06,0.44
	C27.15,12.14,27.27,11.36,27.27,10.58z M14.13,5.23c0.09-0.22,0.24-0.55,0.41-0.86c0.16-0.29,0.39-0.64,0.56-0.86
	c0.52-0.65,1.14-1.16,1.87-1.53c1.12-0.57,2.43-0.71,3.67-0.66c0.19,0.01,0.38,0.03,0.57,0.05c0,0,0.24,0.04,0.29,0.05
	c0.15,0.03,0.3,0.06,0.45,0.1c0.69,0.17,1.16,0.35,1.75,0.7c1.61,0.95,2.51,2.66,2.87,4.48c-0.1-0.01-0.2-0.03-0.3-0.04
	c-0.81-1.54-2.11-2.81-3.8-3.49c-2.94-1.18-6.22-0.02-8.07,2.46c-0.24,0.32-0.46,0.66-0.65,1.02c-0.02,0-0.04,0.01-0.06,0.01
	C13.81,6.17,13.95,5.69,14.13,5.23z M5.6,31.43c-0.06-0.32-0.07-0.65-0.03-0.97c0.01-0.09,0.02-0.3,0.03-0.23c0-0.03,0-0.06,0-0.1
	c-0.03-1.02,0-2.04,0-3.06c0-1.08,0-2.15,0.33-3.2c0.51-1.58,1.56-2.95,2.95-3.86c1.16-0.76,2.53-1.13,3.92-1.14
	c0.49,0,0.98,0,1.47,0c4.11,0,8.22,0,12.33,0c0.57,0,1.14,0,1.71,0.08c1.63,0.23,3.17,1.04,4.28,2.27c1.13,1.26,1.8,2.88,1.86,4.57
	c0.03,0.83,0,1.67,0,2.5c0,0.84,0,1.67,0,2.51c0,0.35-0.04,0.7-0.16,1.03c-0.9,2.5-4.15,2.03-6.15,1.48
	c-0.81-0.22-0.47-1.48,0.35-1.26c0.75,0.21,1.51,0.38,2.29,0.4c0.52,0.02,0.97-0.01,1.46-0.21c-0.01,0,0.17-0.09,0.21-0.11
	c0.06-0.03,0.11-0.07,0.16-0.11c-0.01,0,0.12-0.1,0.14-0.12c0.01-0.02,0.07-0.08,0.1-0.11c0.02-0.04,0.08-0.12,0.1-0.15
	c0.03-0.06,0.06-0.12,0.09-0.18c0,0,0,0,0-0.01c0-0.01,0-0.02,0.01-0.03c0.01-0.05,0.03-0.1,0.05-0.15
	c0.02-0.06,0.02-0.12,0.04-0.18c0-0.06,0.01-0.12,0.01-0.18c0.03-1.45,0-2.91,0-4.36c0-1.03-0.09-2.03-0.54-2.98
	c-0.62-1.31-1.71-2.38-3.06-2.94c-1.35-0.56-2.81-0.44-4.23-0.44c-3.92,0-7.85,0-11.77,0c-0.42,0-0.84-0.01-1.26,0.02
	c-1.47,0.11-2.86,0.82-3.85,1.9c-0.98,1.07-1.51,2.48-1.52,3.93c-0.01,0.81,0,1.61,0,2.42c0,0.78-0.04,1.56-0.05,2.34
	c0,0.26,0,0.36,0.09,0.62c0.02,0.07,0.16,0.28,0.21,0.34C7.41,32,7.62,32.11,8,32.21c1.21,0.33,2.61,0.14,3.82-0.17
	c0.82-0.21,1.16,1.05,0.35,1.26c-0.14,0.04-0.28,0.07-0.42,0.1c-1.69,0.35-4.04,0.65-5.43-0.63C5.95,32.42,5.69,31.93,5.6,31.43z
	 M25.13,28.91c-0.11-0.27-0.32-0.48-0.63-0.48c-2.64,0-5.28,0-7.93,0c-0.38,0-0.77,0-1.15,0c-0.28,0-0.47,0.15-0.56,0.34
	c-0.03,0.04-0.05,0.09-0.07,0.14c-0.51,1.36-1.02,2.73-1.53,4.09c-0.25,0.67-0.53,1.25-0.42,1.99c0.24,1.51,1.93,2.37,3.32,1.86
	c0.78-0.28,1.46-0.92,1.87-1.65c1.37,0,2.73,0,4.1,0c0.4,0.87,1.19,1.48,2.16,1.66c1.37,0.25,2.74-0.5,2.94-1.95
	c0.1-0.71-0.17-1.28-0.42-1.91c-0.33-0.8-0.66-1.6-0.98-2.39C25.59,30.04,25.36,29.48,25.13,28.91z M25.28,35.56
	c-0.42,0.15-0.77,0.07-1.19-0.12c-0.47-0.21-0.74-0.58-0.88-1.07c-0.08-0.28-0.34-0.48-0.63-0.48c-1.65,0-3.3,0-4.95,0
	c-0.21,0-0.48,0.12-0.56,0.32c-0.22,0.51-0.57,0.98-1.05,1.27c-0.8,0.48-2.15-0.03-1.88-1.12c0.11-0.45,0.34-0.89,0.5-1.33
	c0.29-0.78,0.58-1.55,0.87-2.33c0.12-0.32,0.24-0.65,0.36-0.97c2.49,0,4.98,0,7.47,0c0.24,0,0.48,0,0.72,0
	c0.36,0.88,0.72,1.76,1.08,2.64C25.49,33.21,26.63,35.07,25.28,35.56z"/>
<path class="st1" d="M24.5,21.32c-1.39-0.77-2.78-1.54-4.17-2.31c-2.21-1.23-4.43-2.45-6.64-3.68c-0.51-0.28-1.02-0.56-1.52-0.84
	c-0.17-0.09-0.33-0.08-0.47-0.01c-0.17,0.07-0.3,0.22-0.3,0.45c0,1.47,0,2.93,0,4.4c0,2.32,0,4.65,0,6.97c0,0.53,0,1.07,0,1.6
	c0,0.4,0.43,0.61,0.76,0.44c1.39-0.69,2.78-1.38,4.17-2.08c2.21-1.1,4.42-2.2,6.62-3.3c0.51-0.25,1.02-0.51,1.54-0.76
	C24.85,22.02,24.82,21.49,24.5,21.32z M19.82,23.39c-2.21,1.1-4.42,2.2-6.62,3.3c-0.26,0.13-0.52,0.26-0.77,0.38
	c0-1.19,0-2.39,0-3.58c0-2.32,0-4.65,0-6.97c0-0.25,0-0.5,0-0.74c1.13,0.63,2.27,1.26,3.4,1.89c2.21,1.23,4.43,2.45,6.64,3.68
	c0.23,0.13,0.46,0.26,0.69,0.38C22.05,22.28,20.93,22.84,19.82,23.39z M34.36,28.83c-0.3-0.11-0.61-0.18-0.93-0.22
	c0-1.92,0-3.85,0-5.77c0-3.29,0-6.59,0-9.88c0-0.76,0-1.52,0-2.28c0-0.27-0.23-0.51-0.51-0.51c-2.29,0-4.57,0-6.86,0
	c-0.37,0-0.75,0-1.12,0c0.2-0.49,0.34-1,0.43-1.53c0.07-0.41,0.1-0.82,0.11-1.24c-0.02-3.2-2.12-6.09-5.18-7.07
	c-3.07-0.98-6.47,0.22-8.31,2.84c-1.45,2.06-1.67,4.72-0.77,6.99c-2.07,0-4.14,0-6.22,0c-0.54,0-1.09,0-1.63,0
	c-0.27,0-0.51,0.23-0.51,0.51c0,2.49,0,4.98,0,7.48c0,3.97,0,7.94,0,11.91c0,0.91,0,1.82,0,2.73c0,0.27,0.23,0.51,0.51,0.51
	c1.55,0,3.1,0,4.65,0c0.13,0.05,0.28,0.05,0.41,0c1.08,0,2.15,0,3.23,0c2.35,0,4.7,0,7.05,0c2.25,0,4.5,0,6.76,0
	c1.04,0,2.09,0,3.13,0c0.05,0,0.1,0,0.15,0c0.07,0.57,0.25,1.13,0.55,1.65c0.91,1.53,2.71,2.31,4.45,1.98
	c1.96-0.37,3.36-2.16,3.39-4.13C37.12,31.02,36.02,29.45,34.36,28.83z M12.29,4.65c1.21-2.48,3.92-3.97,6.67-3.58
	c3.13,0.44,5.48,3.19,5.5,6.34c-0.02,2.87-1.96,5.44-4.74,6.18c-0.32,0.09-0.59,0.14-0.84,0.36c-0.24,0.21-0.42,0.48-0.63,0.71
	c-0.05,0.06-0.13,0.13-0.18,0.18c0,0,0,0-0.01-0.01c-0.08-0.12-0.22-0.22-0.31-0.33c-0.1-0.12-0.2-0.25-0.31-0.37
	c-0.47-0.52-1.13-0.55-1.75-0.79c-0.63-0.25-1.22-0.61-1.73-1.05C11.77,10.43,11.03,7.24,12.29,4.65z M18.07,14.85
	C18.11,14.85,18.12,14.91,18.07,14.85L18.07,14.85z M7.72,11.18c0,2.34,0,4.69,0,7.03c0,3.97,0,7.94,0,11.91c0,0.72,0,1.44,0,2.16
	c-1.28,0-2.56,0-3.84,0c0-2.32,0-4.65,0-6.97c0-3.97,0-7.94,0-11.91c0-0.74,0-1.48,0-2.22C5.15,11.18,6.44,11.18,7.72,11.18z
	 M19.65,32.29c-2.41,0-4.82,0-7.23,0c-1.23,0-2.46,0-3.69,0c0-2.32,0-4.65,0-6.97c0-3.97,0-7.94,0-11.91c0-0.74,0-1.48,0-2.22
	c0.46,0,0.92,0,1.38,0c0.53,0,1.07,0,1.6,0c0.19,0.33,0.41,0.65,0.66,0.95c1,1.23,2.43,2.12,3.98,2.48
	c0.15,0.03,0.13,0.01,0.24,0.11c0.12,0.11,0.23,0.25,0.33,0.37c0.21,0.25,0.43,0.52,0.73,0.67c0.76,0.38,1.27-0.37,1.7-0.86
	c0.25-0.29,0.35-0.26,0.72-0.37c0.4-0.11,0.78-0.26,1.16-0.44c0.71-0.33,1.37-0.79,1.94-1.33c0.49-0.47,0.92-1,1.27-1.59
	c1.01,0,2.02,0,3.03,0c0,2.32,0,4.65,0,6.97c0,3.97,0,7.94,0,11.91c0,0.74,0,1.48,0,2.22c-0.46,0-0.92,0-1.39,0
	C23.94,32.29,21.79,32.29,19.65,32.29z M28.49,32.29c0-2.32,0-4.65,0-6.97c0-3.97,0-7.94,0-11.91c0-0.74,0-1.48,0-2.22
	c0.92,0,1.84,0,2.76,0c0.39,0,0.78,0,1.17,0c0,1.91,0,3.83,0,5.74c0,3.29,0,6.59,0,9.88c0,0.6,0,1.21,0,1.81
	c-1.05,0.13-2.06,0.65-2.74,1.49c-0.52,0.63-0.83,1.4-0.93,2.18C28.66,32.29,28.58,32.29,28.49,32.29z M34.05,35.79
	c-1.28,0.46-2.72,0.08-3.59-0.96c-0.86-1.03-0.96-2.54-0.28-3.68c0.68-1.14,2.05-1.77,3.35-1.51c1.51,0.3,2.58,1.62,2.6,3.15
	C36.11,34.11,35.3,35.34,34.05,35.79z M34.44,33.3c-0.34,0-0.67,0-1.01,0c0,0.36,0,0.72,0,1.08c0,0.65-1.01,0.65-1.01,0
	c0-0.36,0-0.72,0-1.08c-0.29,0-0.58,0-0.87,0c-0.43,0-0.58-0.44-0.44-0.74c0.07-0.16,0.22-0.28,0.44-0.28c0.29,0,0.58,0,0.87,0
	c0-0.32,0-0.65,0-0.97c0-0.16,0.06-0.29,0.16-0.37c0.28-0.24,0.85-0.12,0.85,0.37c0,0.32,0,0.65,0,0.97c0.34,0,0.67,0,1.01,0
	C35.09,32.29,35.09,33.3,34.44,33.3z M15.38,9.81c0.25,0.05,0.51,0.04,0.77,0.04c0.11,0,0.22,0,0.33,0
	c0.19,0.51,0.38,1.01,0.57,1.52c0.23,0.61,1.21,0.34,0.98-0.27c-0.16-0.42-0.31-0.83-0.47-1.25c0.15,0,0.3,0,0.45,0
	c0,0,0.01,0,0.01,0.01c1.21,0.43,2.41,0.87,3.62,1.3c0.31,0.11,0.64-0.18,0.64-0.49c0-1.81,0-3.62,0-5.43c0-0.26,0-0.53,0-0.79
	c0-0.32-0.33-0.59-0.64-0.49c-1.21,0.38-2.41,0.77-3.62,1.15c-0.02,0.01-0.03,0.01-0.05,0.02c-0.52,0-1.04,0-1.56,0
	c-0.75,0-1.46,0.02-2.02,0.63c-0.76,0.84-0.87,2.21-0.24,3.16C14.43,9.35,14.87,9.71,15.38,9.81z M21.26,9.95
	c-0.87-0.31-1.74-0.62-2.6-0.94c0-1.02,0-2.03,0-3.05c0.87-0.28,1.74-0.55,2.6-0.83c0,1.58,0,3.16,0,4.74
	C21.26,9.91,21.26,9.93,21.26,9.95z M15.07,6.51c0.36-0.44,0.88-0.36,1.39-0.36c0.39,0,0.78,0,1.18,0c0,0.9,0,1.8,0,2.7
	c-0.31,0-0.61,0-0.92,0c-0.43,0-1.06,0.11-1.43-0.16C14.63,8.21,14.58,7.11,15.07,6.51z M29.58,13.97c0.05,0.06,0.13,0.1,0.24,0.1
	c0.42,0,0.84,0,1.26,0c0.18,0,0.34-0.15,0.34-0.34c0-0.42,0-0.84,0-1.26c0-0.18-0.15-0.34-0.34-0.34c-0.42,0-0.84,0-1.26,0
	c-0.18,0-0.34,0.15-0.34,0.34c0,0.42,0,0.84,0,1.26C29.48,13.83,29.52,13.91,29.58,13.97z M30.16,13.39c0-0.2,0-0.39,0-0.59
	c0.2,0,0.39,0,0.59,0c0,0.2,0,0.39,0,0.59C30.55,13.39,30.35,13.39,30.16,13.39z M29.58,16.42c0.05,0.06,0.13,0.1,0.24,0.1
	c0.42,0,0.84,0,1.26,0c0.18,0,0.34-0.15,0.34-0.34c0-0.42,0-0.84,0-1.26c0-0.18-0.15-0.34-0.34-0.34c-0.42,0-0.84,0-1.26,0
	c-0.18,0-0.34,0.15-0.34,0.34c0,0.42,0,0.84,0,1.26C29.48,16.29,29.52,16.37,29.58,16.42z M30.16,15.85c0-0.2,0-0.39,0-0.59
	c0.2,0,0.39,0,0.59,0c0,0.2,0,0.39,0,0.59C30.55,15.85,30.35,15.85,30.16,15.85z M29.58,18.88c0.05,0.06,0.13,0.1,0.24,0.1
	c0.42,0,0.84,0,1.26,0c0.18,0,0.34-0.15,0.34-0.34c0-0.42,0-0.84,0-1.26c0-0.18-0.15-0.34-0.34-0.34c-0.42,0-0.84,0-1.26,0
	c-0.18,0-0.34,0.15-0.34,0.34c0,0.42,0,0.84,0,1.26C29.48,18.74,29.52,18.82,29.58,18.88z M30.16,18.3c0-0.2,0-0.39,0-0.59
	c0.2,0,0.39,0,0.59,0c0,0.2,0,0.39,0,0.59C30.55,18.3,30.35,18.3,30.16,18.3z M29.58,21.33c0.05,0.06,0.13,0.1,0.24,0.1
	c0.42,0,0.84,0,1.26,0c0.18,0,0.34-0.15,0.34-0.34c0-0.42,0-0.84,0-1.26c0-0.18-0.15-0.34-0.34-0.34c-0.42,0-0.84,0-1.26,0
	c-0.18,0-0.34,0.15-0.34,0.34c0,0.42,0,0.84,0,1.26C29.48,21.2,29.52,21.28,29.58,21.33z M30.16,20.76c0-0.2,0-0.39,0-0.59
	c0.2,0,0.39,0,0.59,0c0,0.2,0,0.39,0,0.59C30.55,20.76,30.35,20.76,30.16,20.76z M29.58,23.79c0.05,0.06,0.13,0.1,0.24,0.1
	c0.42,0,0.84,0,1.26,0c0.18,0,0.34-0.15,0.34-0.34c0-0.42,0-0.84,0-1.26c0-0.18-0.15-0.34-0.34-0.34c-0.42,0-0.84,0-1.26,0
	c-0.18,0-0.34,0.15-0.34,0.34c0,0.42,0,0.84,0,1.26C29.48,23.66,29.52,23.73,29.58,23.79z M30.16,23.22c0-0.2,0-0.39,0-0.59
	c0.2,0,0.39,0,0.59,0c0,0.2,0,0.39,0,0.59C30.55,23.22,30.35,23.22,30.16,23.22z M29.58,26.25c0.05,0.06,0.13,0.1,0.24,0.1
	c0.42,0,0.84,0,1.26,0c0.18,0,0.34-0.15,0.34-0.34c0-0.42,0-0.84,0-1.26c0-0.18-0.15-0.34-0.34-0.34c-0.42,0-0.84,0-1.26,0
	c-0.18,0-0.34,0.15-0.34,0.34c0,0.42,0,0.84,0,1.26C29.48,26.11,29.52,26.19,29.58,26.25z M30.16,25.67c0-0.2,0-0.39,0-0.59
	c0.2,0,0.39,0,0.59,0c0,0.2,0,0.39,0,0.59C30.55,25.67,30.35,25.67,30.16,25.67z M29.58,28.7c0.05,0.06,0.13,0.1,0.24,0.1
	c0.42,0,0.84,0,1.26,0c0.18,0,0.34-0.15,0.34-0.34c0-0.42,0-0.84,0-1.26c0-0.18-0.15-0.34-0.34-0.34c-0.42,0-0.84,0-1.26,0
	c-0.18,0-0.34,0.15-0.34,0.34c0,0.42,0,0.84,0,1.26C29.48,28.57,29.52,28.65,29.58,28.7z M30.16,28.13c0-0.2,0-0.39,0-0.59
	c0.2,0,0.39,0,0.59,0c0,0.2,0,0.39,0,0.59C30.55,28.13,30.35,28.13,30.16,28.13z M4.89,13.97c0.05,0.06,0.13,0.1,0.24,0.1
	c0.42,0,0.84,0,1.26,0c0.18,0,0.34-0.15,0.34-0.34c0-0.42,0-0.84,0-1.26c0-0.18-0.15-0.34-0.34-0.34c-0.42,0-0.84,0-1.26,0
	c-0.18,0-0.34,0.15-0.34,0.34c0,0.42,0,0.84,0,1.26C4.79,13.83,4.83,13.91,4.89,13.97z M5.47,13.39c0-0.2,0-0.39,0-0.59
	c0.2,0,0.39,0,0.59,0c0,0.2,0,0.39,0,0.59C5.86,13.39,5.66,13.39,5.47,13.39z M4.89,16.42c0.05,0.06,0.13,0.1,0.24,0.1
	c0.42,0,0.84,0,1.26,0c0.18,0,0.34-0.15,0.34-0.34c0-0.42,0-0.84,0-1.26c0-0.18-0.15-0.34-0.34-0.34c-0.42,0-0.84,0-1.26,0
	c-0.18,0-0.34,0.15-0.34,0.34c0,0.42,0,0.84,0,1.26C4.79,16.29,4.83,16.37,4.89,16.42z M5.47,15.85c0-0.2,0-0.39,0-0.59
	c0.2,0,0.39,0,0.59,0c0,0.2,0,0.39,0,0.59C5.86,15.85,5.66,15.85,5.47,15.85z M4.89,18.88c0.05,0.06,0.13,0.1,0.24,0.1
	c0.42,0,0.84,0,1.26,0c0.18,0,0.34-0.15,0.34-0.34c0-0.42,0-0.84,0-1.26c0-0.18-0.15-0.34-0.34-0.34c-0.42,0-0.84,0-1.26,0
	c-0.18,0-0.34,0.15-0.34,0.34c0,0.42,0,0.84,0,1.26C4.79,18.74,4.83,18.82,4.89,18.88z M5.47,18.3c0-0.2,0-0.39,0-0.59
	c0.2,0,0.39,0,0.59,0c0,0.2,0,0.39,0,0.59C5.86,18.3,5.66,18.3,5.47,18.3z M4.89,21.33c0.05,0.06,0.13,0.1,0.24,0.1
	c0.42,0,0.84,0,1.26,0c0.18,0,0.34-0.15,0.34-0.34c0-0.42,0-0.84,0-1.26c0-0.18-0.15-0.34-0.34-0.34c-0.42,0-0.84,0-1.26,0
	c-0.18,0-0.34,0.15-0.34,0.34c0,0.42,0,0.84,0,1.26C4.79,21.2,4.83,21.28,4.89,21.33z M5.47,20.76c0-0.2,0-0.39,0-0.59
	c0.2,0,0.39,0,0.59,0c0,0.2,0,0.39,0,0.59C5.86,20.76,5.66,20.76,5.47,20.76z M4.89,23.79c0.05,0.06,0.13,0.1,0.24,0.1
	c0.42,0,0.84,0,1.26,0c0.18,0,0.34-0.15,0.34-0.34c0-0.42,0-0.84,0-1.26c0-0.18-0.15-0.34-0.34-0.34c-0.42,0-0.84,0-1.26,0
	c-0.18,0-0.34,0.15-0.34,0.34c0,0.42,0,0.84,0,1.26C4.79,23.66,4.83,23.73,4.89,23.79z M5.47,23.22c0-0.2,0-0.39,0-0.59
	c0.2,0,0.39,0,0.59,0c0,0.2,0,0.39,0,0.59C5.86,23.22,5.66,23.22,5.47,23.22z M4.89,26.25c0.05,0.06,0.13,0.1,0.24,0.1
	c0.42,0,0.84,0,1.26,0c0.18,0,0.34-0.15,0.34-0.34c0-0.42,0-0.84,0-1.26c0-0.18-0.15-0.34-0.34-0.34c-0.42,0-0.84,0-1.26,0
	c-0.18,0-0.34,0.15-0.34,0.34c0,0.42,0,0.84,0,1.26C4.79,26.11,4.83,26.19,4.89,26.25z M5.47,25.67c0-0.2,0-0.39,0-0.59
	c0.2,0,0.39,0,0.59,0c0,0.2,0,0.39,0,0.59C5.86,25.67,5.66,25.67,5.47,25.67z M4.89,28.7c0.05,0.06,0.13,0.1,0.24,0.1
	c0.42,0,0.84,0,1.26,0c0.18,0,0.34-0.15,0.34-0.34c0-0.42,0-0.84,0-1.26c0-0.18-0.15-0.34-0.34-0.34c-0.42,0-0.84,0-1.26,0
	c-0.18,0-0.34,0.15-0.34,0.34c0,0.42,0,0.84,0,1.26C4.79,28.57,4.83,28.65,4.89,28.7z M5.47,28.13c0-0.2,0-0.39,0-0.59
	c0.2,0,0.39,0,0.59,0c0,0.2,0,0.39,0,0.59C5.86,28.13,5.66,28.13,5.47,28.13z M4.89,31.16c0.05,0.06,0.13,0.1,0.24,0.1
	c0.42,0,0.84,0,1.26,0c0.18,0,0.34-0.15,0.34-0.34c0-0.42,0-0.84,0-1.26c0-0.18-0.15-0.34-0.34-0.34c-0.42,0-0.84,0-1.26,0
	c-0.18,0-0.34,0.15-0.34,0.34c0,0.42,0,0.84,0,1.26C4.79,31.02,4.83,31.1,4.89,31.16z M5.47,30.58c0-0.2,0-0.39,0-0.59
	c0.2,0,0.39,0,0.59,0c0,0.2,0,0.39,0,0.59C5.86,30.58,5.66,30.58,5.47,30.58z"/>
<path class="st1" d="M21.57,13.75c0.22,0.03,0.44-0.05,0.5-0.29c0.05-0.19-0.07-0.48-0.29-0.51c-1.95-0.27-4.55-0.36-5.95,1.33
	c-0.62,0.76-0.87,1.68-0.75,2.65c0.12,0.93,0.55,1.88,1.26,2.51c0.02,0.93,0.26,1.86,0.74,2.67c0.53,0.88,1.38,1.63,2.41,1.81
	c1.04,0.19,2.05-0.17,2.82-0.89c0.92-0.87,1.38-2.12,1.46-3.36c1.01-1.17,1.49-2.68,0.91-4.18c-0.28-0.72-0.72-1.43-1.31-1.94
	c-0.4-0.35-0.98,0.23-0.58,0.58c0.47,0.42,0.82,0.92,1.07,1.52c0.46,1.1,0.22,2.19-0.42,3.11c-0.21-0.32-0.48-0.62-0.77-0.87
	c0,0,0,0-0.01,0c-0.04-0.03-0.07-0.06-0.11-0.09c-0.02-0.01-0.03-0.03-0.05-0.04c-0.02-0.02-0.05-0.04-0.07-0.05
	c-0.02-0.01-0.04-0.03-0.06-0.04c-0.02-0.02-0.04-0.03-0.07-0.05c-0.02-0.01-0.03-0.02-0.05-0.03c-0.02-0.01-0.04-0.03-0.06-0.04
	c-0.01,0-0.01-0.01-0.02-0.01c0,0-0.01,0-0.01-0.01c-0.01-0.01-0.02-0.01-0.03-0.02c-0.02-0.02-0.05-0.03-0.07-0.04
	c-0.01-0.01-0.03-0.02-0.05-0.03c-0.02-0.01-0.04-0.03-0.07-0.04c-0.02-0.01-0.04-0.02-0.05-0.03c-0.02-0.01-0.04-0.02-0.06-0.03
	c-0.02-0.01-0.04-0.02-0.06-0.03c-0.02-0.01-0.03-0.02-0.05-0.02c-0.02-0.01-0.05-0.02-0.07-0.03c-0.02-0.01-0.03-0.01-0.05-0.02
	c-0.03-0.01-0.05-0.02-0.08-0.03c-0.02-0.01-0.03-0.01-0.05-0.02c-0.02-0.01-0.05-0.02-0.07-0.03c-0.02-0.01-0.04-0.01-0.06-0.02
	c-0.02-0.01-0.03-0.01-0.05-0.02c-0.02-0.01-0.04-0.01-0.05-0.02c-0.01,0-0.01,0-0.02-0.01c-0.01,0-0.01,0-0.02-0.01
	c-0.02-0.01-0.03-0.01-0.05-0.02c-0.03-0.01-0.05-0.02-0.08-0.02c-0.04-0.01-0.08-0.02-0.13-0.04c0,0,0,0,0,0
	c-0.3-0.08-0.61-0.15-0.91-0.25c-0.02-0.01-0.04-0.01-0.05-0.02c-0.03-0.01-0.06-0.02-0.08-0.03c-0.02-0.01-0.05-0.02-0.07-0.03
	c-0.02-0.01-0.04-0.02-0.07-0.03c-0.03-0.01-0.06-0.03-0.08-0.04c-0.02-0.01-0.04-0.02-0.06-0.03c-0.03-0.01-0.06-0.03-0.09-0.04
	c-0.02-0.01-0.03-0.02-0.05-0.03c-0.03-0.01-0.06-0.03-0.08-0.05c-0.02-0.01-0.04-0.02-0.05-0.03c-0.03-0.01-0.05-0.03-0.08-0.05
	c-0.02-0.01-0.04-0.02-0.06-0.04c-0.02-0.01-0.05-0.03-0.07-0.04c-0.02-0.01-0.04-0.03-0.07-0.04c-0.02-0.01-0.04-0.03-0.05-0.04
	c-0.03-0.02-0.05-0.03-0.08-0.05c-0.16-0.12-0.32-0.3-0.49-0.42c-0.01-0.01-0.02-0.01-0.03-0.02c-0.01-0.02-0.03-0.03-0.04-0.05
	c-0.01-0.01-0.01-0.02-0.02-0.02c-0.02-0.01-0.03-0.03-0.05-0.04c-0.01-0.01-0.02-0.01-0.03-0.02c-0.04-0.02-0.09-0.03-0.13-0.04
	c-0.07-0.01-0.14,0-0.2,0.02c-0.02,0.01-0.04,0.02-0.06,0.03c-0.05,0.04-0.11,0.08-0.16,0.13c0,0-0.01,0.01-0.01,0.01
	c-0.73,0.63-1.14,1.58-1.31,2.54c-0.22-0.34-0.39-0.75-0.48-1.15c-0.06-0.27-0.09-0.55-0.08-0.82c0-0.04,0.01-0.09,0.01-0.13
	c0-0.03,0.01-0.06,0.01-0.09c0,0.01,0,0.02,0,0.02c0-0.01,0-0.03,0.01-0.04c0.03-0.18,0.08-0.36,0.14-0.53
	c0.01-0.02,0.02-0.05,0.03-0.07c0,0,0-0.01,0-0.01c0.03-0.05,0.05-0.11,0.08-0.16c0.06-0.11,0.12-0.22,0.2-0.32
	c0.01-0.02,0.03-0.04,0.05-0.06c0.01-0.01,0.02-0.02,0.03-0.03c0.05-0.06,0.1-0.11,0.15-0.16c0.05-0.05,0.1-0.1,0.15-0.15
	c0.03-0.03,0.15-0.12,0.14-0.12c0.28-0.21,0.6-0.38,0.89-0.48C18.96,13.51,20.32,13.57,21.57,13.75z M19.94,23.14
	c-1.91-0.1-2.81-2.34-2.77-3.98c0.02-0.65,0.16-1.31,0.44-1.89c0.11-0.23,0.24-0.44,0.4-0.64c0.01-0.01,0.01-0.01,0.02-0.02
	c0.01-0.01,0.03-0.03,0.04-0.04c0.01-0.02,0.03-0.03,0.04-0.05c0.07,0.07,0.15,0.13,0.23,0.19c0.15,0.11,0.3,0.22,0.45,0.32
	c0,0,0,0,0,0c0.32,0.2,0.66,0.36,1.02,0.49c0,0,0.01,0,0.01,0c0,0,0,0,0.01,0c0.01,0,0.02,0.01,0.04,0.01
	c0.02,0.01,0.05,0.02,0.07,0.03c0,0,0.01,0,0.01,0c0.58,0.2,1.17,0.28,1.7,0.59c0,0,0,0,0,0c0.03,0.02,0.06,0.04,0.1,0.06
	c0.02,0.01,0.05,0.03,0.07,0.05c0.02,0.01,0.04,0.03,0.06,0.04c0.03,0.02,0.07,0.05,0.1,0.07c0.01,0.01,0.02,0.02,0.03,0.02
	c0.04,0.03,0.07,0.06,0.11,0.09c0.01,0.01,0.02,0.01,0.02,0.02c0.03,0.03,0.06,0.06,0.09,0.09c0.01,0.01,0.02,0.02,0.03,0.03
	c0.02,0.02,0.05,0.05,0.07,0.07c0.02,0.02,0.03,0.03,0.05,0.05c0.02,0.02,0.03,0.03,0.05,0.05c0.02,0.03,0.05,0.05,0.07,0.08
	c0.01,0.01,0.02,0.02,0.03,0.03c0.03,0.03,0.05,0.06,0.07,0.09c0.01,0.01,0.02,0.03,0.03,0.04c0.02,0.03,0.04,0.06,0.06,0.09
	c0.01,0.01,0.02,0.03,0.03,0.04c0.01,0.02,0.02,0.03,0.03,0.05c0.01,0.02,0.02,0.03,0.03,0.05c0.01,0.01,0.02,0.03,0.03,0.04
	c0.01,0.02,0.02,0.04,0.03,0.06c0.01,0.01,0.02,0.03,0.02,0.04c0.01,0.02,0.02,0.04,0.03,0.06c0.01,0.01,0.01,0.03,0.02,0.04
	c0.01,0.02,0.02,0.04,0.03,0.06c0,0,0,0,0,0C22.87,21.21,21.82,23.24,19.94,23.14z M16.07,15.46C16.05,15.5,16.05,15.49,16.07,15.46
	L16.07,15.46z M15.89,16.1C15.89,16.17,15.89,16.14,15.89,16.1L15.89,16.1z M14.96,28.34c0.05,0.51,0.11,1.01,0.19,1.51
	c0.24,1.48,0.65,2.96,1.35,4.29c0.41,0.78,0.95,1.53,1.62,2.11c0.31,0.27,0.69,0.57,1.09,0.7c0.28,0.09,0.64,0.03,0.93,0.03
	c0.57,0,1.08-0.33,1.51-0.68c1.01-0.8,1.66-1.98,2.14-3.16c0.45-1.11,0.75-2.28,0.97-3.45c0.11-0.58,0.26-1.22,0.23-1.81
	c-0.04-0.83-0.28-1.65-0.83-2.29c-0.17-0.19-0.37-0.36-0.58-0.5c-0.41-0.26-0.87-0.29-1.34-0.32c-1.65-0.12-3.32-0.07-4.97,0.04
	c-0.11,0.01-0.21,0.01-0.32,0.02c0,0,0,0,0,0c-0.03,0-0.07,0-0.11,0.01c-0.93,0.24-1.71,0.91-1.9,1.89
	C14.84,27.26,14.91,27.81,14.96,28.34z M16.07,26.22c0.25-0.3,0.59-0.47,0.96-0.57c1.11-0.09,2.23-0.12,3.34-0.12
	c0.46,0,0.93,0.01,1.39,0.03c0.41,0.02,0.95-0.02,1.32,0.19c0.2,0.11,0.28,0.19,0.45,0.37c0.19,0.21,0.33,0.46,0.43,0.72
	c0.15,0.4,0.25,0.87,0.2,1.3c-0.01,0.1-0.02,0.21-0.04,0.31c0,0.04-0.01,0.07-0.01,0.11c0,0,0,0.01,0,0.01c0,0,0,0.01,0,0.01
	c-0.01,0.09-0.03,0.19-0.04,0.28c-0.15,1-0.37,2-0.68,2.97c-0.34,1.09-0.8,2.21-1.53,3.11c-0.35,0.43-0.75,0.8-1.23,1.07
	c-0.1,0.05-0.22,0.09-0.3,0.15c-0.01,0.01-0.02,0.01-0.02,0.01c-0.04,0-0.09,0-0.14,0c-0.24,0-0.49-0.01-0.73,0
	c-0.01,0-0.01,0-0.02,0c0,0-0.01,0-0.01-0.01c-0.15-0.08-0.29-0.16-0.43-0.26c-0.05-0.03-0.09-0.07-0.14-0.1
	c0.01,0.01,0.06,0.05-0.01-0.01c-0.03-0.02-0.06-0.05-0.09-0.07c-0.12-0.1-0.23-0.21-0.34-0.32c-0.29-0.3-0.49-0.54-0.7-0.85
	c-0.66-0.96-1.09-2.06-1.39-3.19c-0.21-0.8-0.37-1.61-0.47-2.43c-0.06-0.5-0.11-1-0.13-1.51C15.69,26.99,15.78,26.56,16.07,26.22z
	 M27.54,19.66c0.25-1.35,0.13-2.77-0.32-4.07c-0.93-2.68-3.38-4.68-6.21-4.97c-2.57-0.26-5.25,0.68-6.98,2.63
	c-1.71,1.93-2.38,4.64-1.6,7.12c0.28,0.88,0.73,1.71,1.28,2.45c0.18,0.25,0.46,0.6,0.74,0.85c0.39,0.36-0.19,0.94-0.58,0.58
	c-0.02-0.02-0.04-0.04-0.07-0.06c-1.24-1.21-2.13-2.94-2.41-4.64c-0.49-2.85,0.7-5.83,2.88-7.68c2.19-1.86,5.41-2.58,8.19-1.8
	c2.94,0.83,5.21,3.32,5.83,6.31c0.28,1.32,0.26,2.71-0.07,4.02c-0.39,1.53-1.22,2.9-2.31,4.03c-0.37,0.38-0.95-0.2-0.58-0.58
	C26.45,22.69,27.24,21.27,27.54,19.66z M28.58,26.96c0.46-0.49,0.89-1,1.29-1.54c1.27-1.73,2.14-3.72,2.35-5.87
	c0.2-2.08-0.07-4.2-0.8-6.15c-1.59-4.24-5.46-7.45-10.03-7.81c-2.03-0.16-4.1,0.21-5.99,0.95c-1.93,0.76-3.62,2.07-4.92,3.69
	c-2.58,3.21-3.57,7.63-2.33,11.58c0.43,1.37,1.1,2.66,1.95,3.82c0.23,0.31,0.49,0.64,0.79,0.97c0.11,0.12,0.23,0.25,0.35,0.36
	c0.39,0.36-0.19,0.94-0.58,0.58c-0.03-0.03-0.06-0.06-0.09-0.09c-1.83-1.84-3.12-4.39-3.58-6.94c-0.79-4.4,0.88-9.09,4.1-12.15
	c3.21-3.04,8.11-4.34,12.4-3.25c4.61,1.18,8.08,5.05,9.2,9.63c0.51,2.09,0.58,4.33,0.09,6.43c-0.56,2.43-1.93,4.56-3.62,6.37
	C28.79,27.93,28.21,27.35,28.58,26.96z M5.21,28.19c-1.24-1.73-2.15-3.71-2.65-5.78c-0.32-1.34-0.48-2.72-0.47-4.1
	c0-0.78,0.05-1.55,0.15-2.32c0.1-0.82,0.22-1.67,0.47-2.46c0.93-2.96,2.51-5.72,4.67-7.95c2.07-2.13,4.63-3.67,7.46-4.56
	c2.96-0.92,6.13-1.19,9.18-0.54c3.32,0.71,6.38,2.51,8.7,4.99c2.11,2.26,3.62,5.05,4.44,8.02c0.83,2.98,1.04,6.2,0.3,9.23
	c-0.78,3.18-2.61,6.01-5.13,8.08c-0.17,0.14-0.41,0.17-0.58,0c-0.14-0.15-0.17-0.44,0-0.58c0.63-0.52,1.22-1.08,1.75-1.68
	c2-2.25,3.23-5.14,3.52-8.14c0.28-2.98-0.27-6.06-1.38-8.82c-1.1-2.71-2.85-5.16-5.1-7.02c-2.59-2.15-5.85-3.44-9.21-3.59
	c-2.78-0.13-5.65,0.43-8.19,1.56C10.52,3.69,8.23,5.56,6.5,7.86c-0.89,1.19-1.64,2.48-2.24,3.85c-0.3,0.69-0.56,1.4-0.79,2.12
	c-0.24,0.76-0.35,1.58-0.44,2.37c-0.31,2.63-0.05,5.3,0.86,7.78c0.35,0.94,0.79,1.85,1.31,2.7c0.43,0.7,0.87,1.33,1.37,1.93
	c0.35,0.42,0.73,0.82,1.12,1.19c0.11,0.1,0.22,0.21,0.34,0.3c0.05,0.04,0.23,0.18,0.05,0.04c0.17,0.14,0.27,0.35,0.15,0.56
	c-0.1,0.17-0.38,0.28-0.56,0.15c-0.07-0.05-0.13-0.1-0.2-0.16C6.61,29.99,5.86,29.1,5.21,28.19z"/>
<path class="st1" d="M39.99,21.69c0,2.05,0,4.1,0,6.15c0,0.36,0.01,0.71,0,1.07c-0.03,1.5-1.16,2.67-2.59,2.7
	c-0.76,0.01-1.51,0-2.27,0c-1.73,0-3.46,0-5.19,0c-2.31,0-4.62,0-6.93,0c-2.47,0-4.93,0-7.4,0c-2.23,0-4.47,0-6.7,0
	c-1.58,0-3.16,0-4.73,0c-0.82,0-1.83,0.13-2.6-0.22c-1.04-0.46-1.57-1.51-1.57-2.66c0-0.57,0-1.15,0-1.72c0-2.26,0-4.53,0-6.79
	c0-2.41,0-4.82,0-7.23c0-0.77,0-1.54,0-2.31c0-0.56-0.02-1.11,0.18-1.64c0.42-1.1,1.42-1.71,2.53-1.71c0.44,0,0.87,0,1.31,0
	c1.87,0,3.74,0,5.61,0c2.44,0,4.87,0,7.31,0c2.12,0,4.24,0,6.36,0c0.91,0,1.82,0,2.73,0c0.66,0,0.66,1.07,0,1.07
	c-0.22,0-0.44,0-0.66,0c-1.56,0-3.12,0-4.68,0c-2.33,0-4.66,0-6.99,0c-2.26,0-4.52,0-6.78,0c-1.35,0-2.69,0-4.04,0
	c-0.64,0-1.25,0.14-1.61,0.76c-0.27,0.46-0.23,0.96-0.23,1.47c0,1.82,0,3.64,0,5.47c0,2.5,0,5.01,0,7.51c0,1.65,0,3.31,0,4.96
	c0,0.76,0.2,1.49,0.94,1.82c0.32,0.14,0.64,0.13,0.97,0.13c1.09,0,2.18,0,3.27,0c1.91,0,3.82,0,5.73,0c2.34,0,4.69,0,7.03,0
	c2.41,0,4.82,0,7.23,0c2.07,0,4.13,0,6.2,0c1.35,0,2.71,0,4.06,0c0.29,0,0.58,0,0.87,0c0.89,0,1.62-0.67,1.63-1.62
	c0.02-1.16,0-2.32,0-3.47c0-2.42,0-4.83,0-7.25c0-2.16,0-4.32,0-6.47c0-0.52,0-1.04,0-1.56c0-0.26-0.02-0.52-0.13-0.77
	c-0.26-0.58-0.81-0.79-1.33-1.06c-0.59-0.3-0.07-1.23,0.52-0.92c0.56,0.29,1.1,0.55,1.49,1.1c0.32,0.45,0.47,1,0.47,1.56
	c0.01,1.38,0,2.76,0,4.13C39.99,16.7,39.99,19.2,39.99,21.69z M23.77,20.08c-0.78,0.19-1.64,0.18-2.42,0
	c-0.16-0.04-0.33-0.2-0.36-0.37c-0.24-1.53-0.2-3.37,1.06-4.44c0.36-0.31,0.8-0.54,1.26-0.66c-0.03-0.45,0.06-0.9,0.28-1.31
	c0.34-0.64,1.01-1.17,1.51-1.67c0.95-0.96,1.91-1.92,2.86-2.88c1.7-1.71,3.4-3.42,5.1-5.13c0.38-0.38,0.82-0.69,1.35-0.78
	c1.14-0.2,2.25,0.48,2.64,1.62c0.3,0.88,0.05,1.82-0.52,2.5c-0.16,0.19-0.34,0.38-0.5,0.57c-1.81,2.06-3.62,4.12-5.43,6.18
	c-0.69,0.79-1.38,1.57-2.07,2.36c-0.63,0.71-1.44,1.29-2.37,1.32c-0.09,0.65-0.32,1.26-0.76,1.75
	C24.97,19.63,24.37,19.93,23.77,20.08z M23.34,19.08c0.5-0.1,0.92-0.26,1.26-0.61c0.41-0.42,0.57-1.04,0.59-1.66
	c0.01-0.22,0.11-0.37,0.26-0.45c0.1-0.07,0.24-0.11,0.39-0.07c0.01,0,0.02,0.01,0.03,0.01c0.01,0,0.02,0,0.03,0
	c0.14,0,0.27,0.01,0.41-0.01c0.85-0.12,1.38-0.86,1.92-1.48c0.78-0.89,1.56-1.77,2.33-2.66c1.64-1.86,3.27-3.73,4.91-5.59
	c0.11-0.13,0.23-0.26,0.34-0.39c0.55-0.67,0.39-1.72-0.36-2.15c-0.91-0.53-1.56,0.22-2.15,0.81c-1.8,1.81-3.6,3.62-5.39,5.43
	c-0.82,0.83-1.65,1.66-2.47,2.49c-0.59,0.59-1.35,1.16-1.03,2.15c0.11,0.34-0.18,0.67-0.49,0.68c-0.04,0-0.08,0.01-0.12,0.01
	c0,0-0.01,0-0.01,0c-0.01,0-0.01,0-0.02,0c-0.06,0.01-0.13,0.02-0.19,0.04c-0.07,0.02-0.15,0.04-0.22,0.06
	c-0.03,0.01-0.07,0.02-0.1,0.04c-0.01,0.01-0.02,0.01-0.03,0.01c0,0,0,0,0,0c-0.16,0.08-0.32,0.17-0.46,0.28
	c-0.02,0.01-0.07,0.06-0.08,0.07c-0.04,0.04-0.08,0.08-0.12,0.12c-0.03,0.04-0.07,0.07-0.1,0.11c-0.07,0.08-0.04,0.04-0.08,0.1
	c-0.14,0.21-0.24,0.41-0.31,0.63c-0.21,0.65-0.21,1.35-0.13,2.03c0.06,0.01,0.12,0.01,0.18,0.02
	C22.52,19.15,23.03,19.14,23.34,19.08z M15.97,14.37c0.32-0.41,0.6-0.87,0.72-1.39c0.29-1.2-0.33-2.4-1.42-2.85
	c-1.54-0.64-3.46,0.1-4.73,1.02c-1.23,0.89-2.2,2.04-2.95,3.4c-1.15,2.08-1.81,4.55-1.51,6.96c0.3,2.4,1.48,4.65,3.36,6.08
	c1.8,1.36,4.16,1.62,6.31,1.31c1.25-0.18,2.49-0.6,3.55-1.33c1.39-0.96,2.38-2.37,2.97-3.99c0.17-0.47,0.3-0.96,0.41-1.46
	c0.14-0.67-0.84-0.96-0.99-0.28c-0.35,1.63-1.03,3.16-2.24,4.28c-0.91,0.84-2,1.33-3.17,1.6c-0.55,0.13-0.91,0.18-1.47,0.21
	c-0.41,0.02-0.83,0.03-1.24,0c-0.15-0.01-0.3-0.02-0.45-0.04c-0.05-0.01-0.1-0.01-0.15-0.02c-0.01,0-0.02,0-0.02,0
	c-0.52-0.1-1.03-0.19-1.53-0.38c-1.94-0.73-3.39-2.58-4.01-4.6c-0.69-2.24-0.38-4.66,0.55-6.77c0.33-0.75,0.73-1.47,1.2-2.14
	c0.11-0.15,0.07-0.1,0.17-0.23c0.05-0.07,0.11-0.14,0.17-0.21c0.16-0.19,0.33-0.37,0.5-0.55c1.18-1.19,2.72-2.14,4.39-1.98
	c0.02,0,0.11,0.01,0.13,0.02c0.08,0.01,0.16,0.03,0.25,0.06c0.22,0.07,0.43,0.19,0.59,0.36c0.34,0.35,0.45,0.84,0.32,1.31
	c-0.11,0.41-0.35,0.77-0.61,1.08c-0.29,0.33-0.61,0.61-0.69,1.07c-0.18,0.98,0.68,1.52,1.46,1.75c0.37,0.11,0.77,0.17,1.15,0.2
	c0.56,0.05,1.12-0.03,1.67,0.15c0.19,0.06,0.37,0.13,0.54,0.26c0.22,0.17,0.57,0.04,0.7-0.19c0.15-0.27,0.04-0.56-0.18-0.73
	c-0.72-0.55-1.64-0.49-2.48-0.53c-0.41-0.02-0.81-0.08-1.2-0.2c-0.17-0.05-0.34-0.11-0.49-0.22c-0.11-0.07-0.17-0.14-0.18-0.21
	C15.37,14.91,15.81,14.57,15.97,14.37z M11.53,17.61c-1.01,0-1.86-0.89-1.86-1.95c0-1.06,0.85-1.95,1.86-1.95
	c1,0,1.76,0.82,1.85,1.83c0.01,0.04,0.01,0.08,0.01,0.12c0,0.04,0,0.08-0.01,0.12C13.3,16.79,12.53,17.61,11.53,17.61z M12.37,15.66
	c-0.04-1.13-1.67-1.13-1.67,0C10.7,16.8,12.34,16.79,12.37,15.66z M12.11,20.85c0.01,0.04,0.01,0.08,0.01,0.12
	c0,0.04,0,0.08-0.01,0.12c-0.09,1-0.85,1.83-1.85,1.83c-1.01,0-1.86-0.89-1.86-1.95c0-1.06,0.85-1.95,1.86-1.95
	C11.25,19.03,12.02,19.85,12.11,20.85z M11.09,20.97c-0.04-1.13-1.67-1.13-1.67,0C9.42,22.11,11.06,22.1,11.09,20.97z M12.5,24.58
	c0-1.06,0.85-1.95,1.86-1.95c1,0,1.76,0.82,1.85,1.83c0.01,0.04,0.01,0.08,0.01,0.12c0,0.04,0,0.08-0.01,0.12
	c-0.09,1-0.85,1.83-1.85,1.83C13.35,26.53,12.5,25.64,12.5,24.58z M13.52,24.58c0,1.13,1.64,1.13,1.67,0
	C15.16,23.46,13.52,23.45,13.52,24.58z M20.29,20.85c0.01,0.04,0.01,0.08,0.01,0.12c0,0.04,0,0.08-0.01,0.12
	c-0.09,1-0.85,1.83-1.85,1.83c-1.01,0-1.86-0.89-1.86-1.95c0-1.06,0.85-1.95,1.86-1.95C19.44,19.03,20.2,19.85,20.29,20.85z
	 M19.28,20.97c-0.04-1.13-1.67-1.13-1.67,0C17.6,22.11,19.24,22.1,19.28,20.97z M34.4,33.11c-0.96,0-1.91,0-2.87,0
	c-2.29,0-4.57,0-6.86,0c-2.76,0-5.53,0-8.29,0c-2.4,0-4.8,0-7.2,0c-1.16,0-2.33-0.05-3.49,0c-0.02,0-0.03,0-0.05,0
	c-0.66,0-0.66,1.07,0,1.07c0.96,0,1.91,0,2.87,0c2.29,0,4.57,0,6.86,0c2.76,0,5.53,0,8.29,0c2.4,0,4.8,0,7.2,0
	c1.16,0,2.33,0.05,3.49,0c0.02,0,0.03,0,0.05,0C35.06,34.18,35.06,33.11,34.4,33.11z"/>
<path class="st1" d="M32.8,27.56c0.47,2.31,0.74,4.77,0.27,7.09c-0.12,0.57-0.29,1.06-0.71,1.49c-0.73,0.75-1.81,0.94-2.81,0.83
	C29.25,36.94,29,36.75,29,36.43c0-0.27,0.25-0.58,0.54-0.54c0.52,0.06,1.09,0.07,1.57-0.17c0.17-0.08,0.3-0.17,0.39-0.27
	c0.06-0.06,0.12-0.12,0.18-0.19c0.01-0.02,0.02-0.02,0.02-0.02c0-0.01,0.01-0.02,0.03-0.05c0.05-0.09,0.1-0.17,0.15-0.26
	c0,0,0-0.01,0-0.01c0.09-0.46,0.21-0.91,0.26-1.38c0.12-1.15,0.08-2.31-0.05-3.46c-0.14-1.31-0.38-2.63-0.75-3.9
	c-0.2-0.67,0.85-0.96,1.05-0.29C32.56,26.44,32.68,27,32.8,27.56z M18.72,36.04c0.22,0.35-0.06,0.82-0.47,0.82
	c-0.03,0-0.06,0-0.09,0c-1.69,0.05-3.4,0-5.09,0c-2.25,0-4.5,0-6.75,0c-0.42,0-0.86,0.03-1.28,0c-1.03-0.08-2.03-0.79-2.08-1.89
	c-0.04-0.98-0.02-1.97-0.03-2.96c-0.01-1-0.07-2.02,0.07-3.01c0.44-3.17,2.8-6.1,5.91-7c-0.35-0.57-0.7-1.15-1.05-1.72
	c-0.19-0.32,0-0.68,0.32-0.8c0.78-0.28,1.56-0.57,2.34-0.85c-0.53-1.1-1.06-2.19-1.59-3.29c-0.16-0.33-0.02-0.68,0.32-0.8
	c0.63-0.22,1.26-0.44,1.89-0.67c-0.09-0.53-0.13-1.07-0.13-1.61c-1.38-1.17-2.18-3.01-2.4-4.77C8.42,5.78,8.88,4.11,9.98,2.77
	c2.59-3.15,7.47-2.99,11.1-2.48c0.29,0.04,0.45,0.41,0.38,0.67c-0.09,0.31-0.38,0.42-0.67,0.38c-2.42-0.34-5.03-0.46-7.37,0.38
	c-0.61,0.22-1.23,0.54-1.78,0.95c-0.01,0.01-0.02,0.01-0.02,0.02c0,0-0.01,0.01-0.03,0.02c-0.03,0.03-0.06,0.05-0.1,0.08
	c-0.06,0.05-0.11,0.09-0.17,0.14c-0.1,0.09-0.19,0.18-0.29,0.28c-0.1,0.1-0.19,0.21-0.28,0.32c-0.03,0.04-0.06,0.07-0.07,0.08
	c-0.04,0.05-0.07,0.1-0.11,0.15c-0.14,0.19-0.26,0.4-0.37,0.61c-0.06,0.11-0.11,0.22-0.16,0.33c0,0.01-0.01,0.02-0.01,0.02
	c0,0,0,0,0,0.01C10.02,4.76,10,4.81,9.98,4.86C9.86,5.19,9.76,5.53,9.7,5.88c-0.02,0.1-0.03,0.27-0.02,0.1
	C9.68,6.04,9.67,6.09,9.67,6.14C9.66,6.23,9.65,6.32,9.65,6.41C9.64,6.96,9.69,7.53,9.82,8.07c0.21,0.94,0.65,1.88,1.22,2.61
	c0.02,0.03,0.04,0.05,0.06,0.08c0.25-2.07,1.1-4.22,2.78-5.47c0.18-0.13,0.52-0.08,0.66,0.08c0.02,0.03,0.05,0.07,0.08,0.1
	c0.3,0.18,0.58,0.53,0.83,0.72c0.56,0.43,1.18,0.79,1.83,1.07c1.11,0.49,2.33,0.62,3.45,1.11c0.86,0.37,1.65,0.9,2.32,1.55
	c0.47,0.46,0.92,0.99,1.26,1.58c0.66-0.84,1.19-1.79,1.42-2.85c0.36-1.63-0.1-3.28-0.96-4.67c-0.43-0.69-0.88-1.3-1.52-1.86
	c-0.53-0.46,0.24-1.23,0.77-0.77c0.26,0.22,0.49,0.48,0.71,0.74c1.04,1.22,1.87,2.7,2.12,4.3c0.37,2.38-0.57,4.55-2.13,6.31
	c-0.02,0.4-0.07,0.8-0.13,1.19c0.59,0.21,1.19,0.41,1.78,0.62c0.36,0.12,0.47,0.47,0.32,0.8c-0.21,0.48-0.42,0.95-0.64,1.43
	c-0.12,0.27-0.51,0.33-0.74,0.19c-0.27-0.16-0.32-0.47-0.19-0.74c0.12-0.28,0.25-0.55,0.37-0.83c-0.38-0.13-0.76-0.26-1.14-0.39
	c-0.36,1.3-0.97,2.52-1.86,3.55c-0.5,0.58-1.1,1.07-1.75,1.44c-0.14,0.78-0.27,1.55-0.41,2.33c0,0.05-0.01,0.1-0.03,0.15
	c-0.05,0.27-0.09,0.54-0.14,0.8c-0.11,0.64-1.03,0.43-1.06-0.16c-0.83,0.23-1.74,0.23-2.56-0.02c0.13,0.95,0.26,1.89,0.39,2.84
	c0.04,0.29-0.07,0.58-0.38,0.67c-0.26,0.07-0.63-0.09-0.67-0.38c-0.04-0.27-0.07-0.54-0.11-0.81c-0.25-1.81-0.5-3.62-0.75-5.43
	c-0.54-0.31-1.03-0.69-1.46-1.13c-1.06-1.08-1.77-2.42-2.17-3.87c-0.41,0.14-0.82,0.29-1.22,0.43c0.53,1.09,1.06,2.19,1.59,3.28
	c0.16,0.33,0.02,0.67-0.32,0.8C10.66,19.72,9.9,20,9.14,20.28c0.3,0.49,0.59,0.97,0.89,1.46c1.77,2.92,3.55,5.84,5.32,8.76
	C16.47,32.35,17.6,34.19,18.72,36.04z M19.53,20.46c-0.48,0.15-0.97,0.24-1.48,0.26c-0.64,0.02-1.28-0.07-1.88-0.27
	c0.06,0.45,0.12,0.9,0.19,1.35c0.88,0.45,2,0.46,2.93,0.05C19.37,21.39,19.45,20.92,19.53,20.46z M13.33,7.53
	c-0.05,0.08-0.1,0.16-0.14,0.24c-1.05,1.93-1.33,4.27-0.86,6.41c0.43,1.94,1.64,3.98,3.4,4.92c0.04,0.02,0.08,0.04,0.12,0.06
	c0.79,0.4,1.69,0.58,2.68,0.43c0.46-0.07,0.9-0.2,1.3-0.38c0.08-0.09,0.18-0.14,0.3-0.15c2.23-1.2,3.39-4.04,3.51-6.49
	c-0.01-0.02-0.02-0.05-0.03-0.07c-0.1-0.2-0.21-0.39-0.33-0.58c-0.76-1.21-1.96-2.2-3.34-2.7c-0.53-0.19-1.08-0.29-1.62-0.44
	c-0.56-0.15-1.11-0.36-1.64-0.6c-0.52-0.24-1.02-0.52-1.49-0.84c-0.26-0.18-0.52-0.38-0.76-0.59c-0.09-0.08-0.19-0.16-0.28-0.25
	c0,0.01-0.01,0.01-0.02,0.01C13.79,6.85,13.58,7.13,13.33,7.53z M17.29,35.77c-0.24-0.4-0.49-0.8-0.73-1.2
	c-1.77-2.92-3.55-5.84-5.32-8.76c-0.58-0.95-1.16-1.9-1.73-2.85c-3.28,0.82-5.52,4.03-5.5,7.36c0.01,0.93,0.02,1.86,0.03,2.79
	c0.01,0.5,0.01,1,0.02,1.5c0,0.12,0.02,0.26,0,0.38c0,0,0,0,0,0c0,0,0,0.01,0.01,0.01c0.02,0.04,0.03,0.09,0.04,0.13
	c0,0.01,0,0.01,0,0.01c0,0.01,0.01,0.01,0.01,0.02c0.05,0.1,0.09,0.17,0.13,0.21c0.18,0.21,0.42,0.32,0.69,0.36
	c0.14,0.03,0.28,0.02,0.43,0.02c0.68,0,1.37,0,2.05,0C10.71,35.77,14,35.77,17.29,35.77z M26.24,28.89c0,0.03,0,0.06,0,0.08
	c-0.07,1.11-0.85,2.11-1.99,2.3c-1,0.17-2.01-0.27-2.53-1.15c-0.53-0.89-0.42-2.03,0.25-2.82c0.64-0.75,1.73-1.05,2.66-0.71
	c0.94,0.34,1.55,1.2,1.61,2.19C26.24,28.82,26.24,28.85,26.24,28.89z M25.16,28.89c-0.02-0.73-0.59-1.34-1.34-1.34
	c-0.74,0-1.34,0.61-1.34,1.34c0,0.73,0.61,1.35,1.34,1.34C24.56,30.23,25.14,29.62,25.16,28.89z M23.65,32.46
	c-0.82-0.42-1.65-0.85-2.47-1.27c-0.62-0.32-1.17,0.62-0.55,0.94c0.82,0.42,1.65,0.85,2.47,1.27
	C23.72,33.72,24.27,32.78,23.65,32.46z M37.07,6.44C37,6.7,36.68,6.92,36.4,6.82c-0.33-0.12-0.65-0.25-0.98-0.37
	c-0.06,0.13-0.11,0.27-0.17,0.4c-0.06,0.14-0.12,0.28-0.17,0.41c0.28,0.1,0.55,0.21,0.83,0.31c0.28,0.1,0.46,0.36,0.38,0.67
	c-0.07,0.26-0.39,0.48-0.67,0.38c-0.32-0.12-0.64-0.24-0.96-0.36c-1.21,2.88-2.43,5.76-3.64,8.65c-0.28,0.66-0.55,1.31-0.83,1.97
	c1.37,1.32,2.04,3.28,1.42,5.13c-0.19,0.57-0.47,1.08-0.8,1.58c-0.14,0.21-0.27,0.46-0.35,0.66c-0.31,0.83-0.35,1.7-0.21,2.57
	c0.37,2.26,0.21,5.09-1.58,6.75c-1.24,1.15-2.99,1.44-4.63,1.29c-1.65-0.15-3.32-0.68-4.72-1.57c-1.06-0.67-2.04-1.61-2.6-2.74
	c-0.69-1.39-0.69-2.98-0.07-4.4c0.54-1.22,1.34-2.34,2.41-3.15c0.29-0.23,0.61-0.4,0.92-0.6c0.05-0.03,0.1-0.07,0.15-0.1
	c0.02-0.02,0.03-0.02,0.03-0.02c0.01-0.01,0.02-0.02,0.04-0.04c0.13-0.11,0.25-0.22,0.37-0.34c0.77-0.79,1.12-1.77,1.24-2.85
	c0.04-0.42,0.27-0.84,0.47-1.19c0.39-0.69,0.94-1.31,1.63-1.7c0.85-0.49,1.82-0.6,2.78-0.47c1.09-2.71,2.18-5.43,3.27-8.14
	c0.2-0.51,0.41-1.02,0.61-1.53c0.01-0.09,0.03-0.17,0.07-0.24c0.02-0.03,0.04-0.06,0.06-0.08c0.13-0.33,0.27-0.67,0.4-1
	c-0.32-0.13-0.63-0.26-0.95-0.39c-0.27-0.11-0.47-0.36-0.38-0.67c0.07-0.26,0.4-0.49,0.67-0.38c0.35,0.14,0.71,0.29,1.06,0.43
	c0.11-0.27,0.22-0.54,0.32-0.81c-0.34-0.15-0.68-0.29-1.02-0.44c-0.27-0.12-0.33-0.51-0.19-0.74c0.16-0.28,0.47-0.31,0.74-0.19
	c0.29,0.13,0.58,0.25,0.88,0.38c0.1-0.25,0.2-0.49,0.3-0.74c0.14-0.35,0.45-0.47,0.8-0.32c0.89,0.38,1.77,0.76,2.66,1.14
	c0.2,0.09,0.33,0.42,0.25,0.61c-0.13,0.3-0.25,0.6-0.38,0.9c0.28,0.11,0.57,0.21,0.85,0.32C36.97,5.87,37.15,6.13,37.07,6.44z
	 M34.6,5.61L34.6,5.61c0.01-0.04,0.03-0.07,0.05-0.11c0.11-0.27,0.23-0.54,0.34-0.81c-0.55-0.24-1.1-0.47-1.66-0.71
	c-0.24,0.59-0.47,1.18-0.71,1.77c-0.27,0.66-0.53,1.33-0.8,1.99c0.53,0.23,1.06,0.46,1.59,0.69c0.13-0.31,0.26-0.62,0.39-0.92
	c0-0.03,0.01-0.06,0.02-0.09c0.02-0.07,0.06-0.14,0.1-0.19C34.15,6.69,34.38,6.15,34.6,5.61z M32.51,10.58
	c0.16-0.38,0.32-0.77,0.48-1.15c-0.52-0.23-1.05-0.45-1.57-0.68c-0.96,2.4-1.93,4.8-2.89,7.2c-0.86,2.13-1.71,4.26-2.57,6.39
	c-0.11,0.27-0.36,0.47-0.67,0.38c-0.26-0.07-0.49-0.39-0.38-0.67c0.31-0.78,0.63-1.56,0.94-2.34c0.14-0.34,0.27-0.68,0.41-1.01
	c-0.3-0.02-0.6-0.02-0.9,0.04c-0.76,0.15-1.36,0.55-1.83,1.14c-0.11,0.14-0.32,0.47-0.44,0.71c-0.03,0.06-0.06,0.12-0.09,0.19
	c-0.01,0.01-0.01,0.02-0.01,0.03c0,0.01-0.01,0.02-0.01,0.03c-0.03,0.07-0.06,0.14-0.08,0.22c-0.08,0.24-0.06,0.42-0.11,0.74
	c-0.1,0.58-0.3,1.14-0.57,1.66c-0.38,0.71-0.92,1.32-1.57,1.79c-0.15,0.11-0.31,0.2-0.47,0.29c-0.58,0.35-1.08,0.81-1.51,1.33
	c-0.77,0.93-1.4,2.15-1.41,3.38c-0.02,2.38,2.11,4.11,4.16,4.89c0.72,0.27,1.46,0.47,2.22,0.59c0.03,0.01,0.17,0.02,0.16,0.02
	c0.03,0,0.05,0.01,0.08,0.01c0.07,0.01,0.14,0.02,0.21,0.02c0.3,0.03,0.6,0.04,0.9,0.03c1.56-0.03,2.9-0.63,3.62-1.93
	c0.3-0.53,0.47-1.1,0.59-1.76c0.02-0.09,0.03-0.17,0.04-0.26c0,0,0,0,0-0.01c0-0.01,0-0.02,0-0.03c0-0.03,0.01-0.07,0.01-0.1
	c0.02-0.14,0.03-0.28,0.04-0.42c0.02-0.28,0.02-0.56,0.02-0.84c0-0.23-0.02-0.46-0.04-0.69c-0.01-0.11-0.02-0.21-0.03-0.32
	c-0.01-0.05-0.02-0.18-0.02-0.17c-0.07-0.45-0.15-0.91-0.15-1.37c-0.01-0.94,0.2-1.95,0.71-2.76c0.5-0.81,0.96-1.59,0.98-2.57
	c0.01-0.85-0.31-1.64-0.8-2.32c-0.06-0.08-0.14-0.19-0.24-0.29c-0.46,1.08-0.91,2.17-1.37,3.25c-0.11,0.27-0.36,0.47-0.67,0.38
	c-0.26-0.07-0.49-0.4-0.38-0.67c0.32-0.76,0.64-1.53,0.97-2.29c0.25-0.58,0.49-1.16,0.74-1.75c0.01-0.05,0.03-0.09,0.06-0.14
	C30.22,16.03,31.37,13.3,32.51,10.58z"/>
<path class="st1" d="M10.35,7.47C10.34,7.54,10.34,7.53,10.35,7.47L10.35,7.47z M40,15.29c0.01,1.06,0,2.12,0,3.18
	c0,1.35-0.29,2.64-1.34,3.59c-0.66,0.6-1.48,0.95-2.36,1.04c-0.39,0.04-0.8,0.03-1.19,0.02c-0.79,1.01-1.58,2.02-2.36,3.02
	c-0.38,0.48-1.17,0.06-1.16-0.48c0.01-0.85,0.02-1.7,0.04-2.55c-0.26,0-0.51,0-0.77,0c-2.09-0.04-3.87-1.58-4.13-3.67
	c-0.14-1.13-0.03-2.33-0.03-3.47c0-0.38-0.02-0.76,0.02-1.13c0.09-0.9,0.45-1.72,1.04-2.4c0.91-1.04,2.19-1.39,3.52-1.39
	c1.12,0,2.25,0,3.37,0c1.08,0,2.13-0.06,3.13,0.44C39.2,12.21,39.99,13.73,40,15.29z M38.64,18.41c0-1.06,0.01-2.12,0-3.17
	c-0.02-1.55-1.16-2.79-2.73-2.82c-1-0.01-2.01,0-3.01,0c-0.9,0-1.96-0.14-2.83,0.11c-0.81,0.23-1.49,0.85-1.82,1.63
	c-0.19,0.46-0.2,0.94-0.2,1.43c0,1.1-0.01,2.2,0,3.3c0.01,1.58,1.21,2.85,2.81,2.87c0.49,0,0.97,0,1.46,0
	c0.36,0,0.68,0.31,0.68,0.68c-0.01,0.41-0.01,0.82-0.02,1.23c0.31-0.4,0.63-0.8,0.94-1.2c0.32-0.41,0.49-0.7,1.07-0.7
	c0.71,0,1.44,0.06,2.11-0.25c0.72-0.34,1.24-1,1.45-1.77C38.66,19.3,38.64,18.86,38.64,18.41z M30.86,27.76
	c0.57,1.18,0.63,2.4,0.63,3.68c0,1.14,0,2.28,0,3.43c0,0.37-0.31,0.68-0.68,0.68c-0.75,0-1.49,0-2.24,0c-3.24,0-6.49,0-9.73,0
	c-2.03,0-4.07,0-6.1,0c-0.88,0-0.87-1.36,0-1.36c0.75,0,1.49,0,2.24,0c3.24,0,6.49,0,9.73,0c1.81,0,3.62,0,5.42,0
	c0-1.01,0-2.02,0-3.03c0-1.13-0.1-2.17-0.7-3.17c-0.7-1.16-1.83-2.01-3-2.66c-1.34-0.74-2.85-1.3-4.39-1.62
	c-0.34,1.04-1.08,1.94-2.09,2.42c-1.37,0.64-3.01,0.5-4.22-0.42c-1.06-0.81-1.61-2.03-1.62-3.36c0-0.68,0-1.36,0-2.05
	c-0.1-0.09-0.19-0.18-0.29-0.28c-1.63-1.71-2.43-4.04-2.46-6.39c-1.34-1.17-2.13-2.95-2.34-4.68C8.81,7.22,9.27,5.54,10.4,4.18
	c2.58-3.12,7.4-2.97,11.01-2.46c0.36,0.05,0.57,0.52,0.47,0.84c-0.11,0.38-0.47,0.53-0.84,0.47c-2.34-0.33-4.86-0.44-7.12,0.36
	c-0.58,0.21-1.18,0.52-1.72,0.92c-0.01,0-0.01,0.01-0.01,0.01c-0.01,0-0.01,0.01-0.03,0.02c-0.02,0.02-0.05,0.04-0.07,0.06
	c-0.05,0.05-0.11,0.09-0.16,0.14c-0.1,0.09-0.2,0.19-0.3,0.29c-0.1,0.1-0.19,0.21-0.28,0.31c-0.01,0.02-0.06,0.07-0.07,0.09
	c-0.02,0.03-0.04,0.06-0.06,0.09c-0.14,0.2-0.26,0.4-0.37,0.61c-0.05,0.1-0.1,0.21-0.15,0.31c0,0.01,0,0.01-0.01,0.02
	c-0.02,0.04-0.03,0.08-0.05,0.12c-0.12,0.33-0.21,0.66-0.27,1c-0.01,0.04-0.01,0.07-0.01,0.09c0-0.01,0-0.02,0-0.04
	c-0.01,0.06-0.01,0.11-0.02,0.17c-0.01,0.08-0.01,0.16-0.02,0.25c-0.02,0.53,0.04,1.06,0.15,1.58c0.18,0.82,0.55,1.64,1.02,2.31
	c0.3-1.96,1.16-3.93,2.74-5.11c0.22-0.17,0.65-0.1,0.82,0.11c0.02,0.03,0.04,0.05,0.06,0.07c0.09,0.07,0.18,0.16,0.26,0.24
	c0.28,0.27,0.58,0.51,0.9,0.73c0.65,0.44,1.35,0.8,2.1,1.05c0.72,0.25,1.48,0.36,2.2,0.62c0.59,0.22,1.17,0.49,1.69,0.85
	c0.87,0.59,1.68,1.37,2.26,2.28c0.66-0.88,1.17-1.89,1.31-3c0.13-1-0.05-2.03-0.44-2.96c-0.47-1.12-1.13-2.08-2.02-2.86
	c-0.66-0.58,0.31-1.53,0.96-0.96c0.26,0.22,0.49,0.48,0.71,0.74c1.03,1.21,1.85,2.67,2.09,4.25c0.37,2.37-0.55,4.52-2.08,6.28
	c-0.14,2.1-0.85,4.18-2.26,5.77c-0.17,0.19-0.35,0.37-0.54,0.54c0,0.67,0.02,1.34,0,2.01c0.55,0.11,1.09,0.27,1.62,0.43
	C26.56,23.64,29.57,25.1,30.86,27.76z M10.69,6.26C10.66,6.31,10.66,6.32,10.69,6.26L10.69,6.26z M14.98,7.75
	C15.04,7.71,15.03,7.71,14.98,7.75L14.98,7.75z M18.81,20.62c3.13-0.45,4.74-3.86,4.89-6.71c-0.01-0.03-0.03-0.06-0.04-0.09
	c-0.12-0.24-0.26-0.47-0.41-0.7c-0.43-0.64-1.06-1.27-1.76-1.72c-1.13-0.73-2.38-0.88-3.61-1.32c-0.66-0.24-1.31-0.53-1.91-0.9
	C15.66,9,15.38,8.8,15.1,8.58c-0.15-0.12-0.34-0.3-0.51-0.45c-0.29,0.3-0.46,0.54-0.69,0.89c-0.05,0.08-0.1,0.16-0.14,0.23
	c-1.01,1.87-1.28,4.12-0.81,6.19C13.55,18.14,15.72,21.06,18.81,20.62z M20.92,21.31c-0.79,0.42-1.67,0.67-2.59,0.7
	c-1.01,0.02-1.98-0.25-2.85-0.72c0,0.35,0,0.7,0,1.05c0,0.95,0.38,1.86,1.21,2.4c0.96,0.62,2.23,0.6,3.15-0.1
	C20.88,23.83,20.95,22.55,20.92,21.31z M11.98,25.71c0,2,0,4,0,6c0,0.51,0.01,1.02,0,1.52c-0.01,1.25-0.91,2.23-2.16,2.32
	c-0.03,0-0.06,0.01-0.09,0.01c-0.13,0-0.27,0-0.4,0c-1.87,0-3.74,0-5.61,0c-0.52,0-1.05,0.03-1.57,0c-1.25-0.08-2.11-1.11-2.12-2.33
	c-0.04-3.38,0-6.76,0-10.13c0-0.36-0.01-0.72,0-1.08c0.04-1.32,1.07-2.24,2.36-2.25c1.73-0.01,3.47,0,5.2,0c0.69,0,1.38-0.01,2.06,0
	c1.29,0.01,2.29,0.95,2.34,2.25C12.02,23.24,11.98,24.48,11.98,25.71z M10.62,29.94c0-1.92,0-3.83,0-5.75c0-0.62,0-1.23,0-1.85
	c0-0.54-0.1-1.13-0.77-1.22c-0.44-0.06-0.92,0-1.36,0c-0.94,0-1.88,0-2.81,0c-0.88,0-1.75,0-2.63,0c-0.49,0-1.1-0.1-1.46,0.3
	c-0.29,0.32-0.22,0.8-0.22,1.2c0,0.7,0,1.41,0,2.11c0,1.92,0,3.83,0,5.75c0,0.72,0,1.44,0,2.16c0,0.37-0.07,0.85,0.15,1.17
	c0.33,0.49,0.95,0.39,1.47,0.39c0.85,0,1.7,0,2.55,0c1.39,0,2.79,0,4.18,0c0.51-0.02,0.86-0.39,0.89-0.89
	C10.68,32.19,10.62,31.06,10.62,29.94z M9.01,22.79c-2.02,0-4.05,0-6.07,0c-0.87,0-0.88,1.36,0,1.36c2.02,0,4.05,0,6.07,0
	C9.88,24.15,9.89,22.79,9.01,22.79z M9.01,25.53c-2.02,0-4.05,0-6.07,0c-0.87,0-0.88,1.36,0,1.36c2.02,0,4.05,0,6.07,0
	C9.88,26.89,9.89,25.53,9.01,25.53z M6,28.05c-1.02,0-2.04,0-3.06,0c-0.87,0-0.88,1.36,0,1.36c1.02,0,2.04,0,3.06,0
	C6.87,29.4,6.87,28.05,6,28.05z M6,31.56c-0.11,0-0.22,0-0.33,0c-0.17,0-0.36,0.08-0.48,0.2c-0.12,0.12-0.21,0.31-0.2,0.48
	c0.01,0.18,0.07,0.36,0.2,0.48c0.13,0.12,0.3,0.2,0.48,0.2c0.11,0,0.22,0,0.33,0c0.17,0,0.36-0.08,0.48-0.2
	c0.12-0.12,0.21-0.31,0.2-0.48c-0.01-0.18-0.07-0.36-0.2-0.48C6.35,31.63,6.18,31.56,6,31.56z M36.73,16.22
	c0.65,0.78,0.22,1.93,0.05,2.81c-0.06,0.33-0.11,0.68-0.19,1.01c-0.17,0.68-0.73,1.12-1.43,1.16c-1.29,0.06-2.59,0.02-3.88,0.02
	c-0.18,0.1-0.38,0.18-0.59,0.21c-0.06,0.02-0.12,0.02-0.19,0.02c-0.08,0.01-0.16,0-0.23-0.02c-0.73-0.11-1.25-0.75-1.28-1.49
	c-0.01-0.3,0-0.61,0-0.91c0-0.45,0-0.9,0-1.35c0-0.31-0.03-0.65,0.06-0.94c0.2-0.68,0.87-1.14,1.57-1.08
	c0.38,0.03,0.7,0.2,0.94,0.45c0.05-0.05,0.1-0.1,0.14-0.15c0.56-0.64,0.86-1.48,0.95-2.31c0.03-0.28,0.18-0.6,0.5-0.66
	c1.3-0.21,1.45,1.5,1.43,2.64C35.37,15.6,36.23,15.62,36.73,16.22z M33.06,14.22c0,0.01,0.01,0.01,0.01,0.02
	C33.06,14.23,33.06,14.22,33.06,14.22C33.06,14.22,33.06,14.22,33.06,14.22z M30.35,18.6c0,0.18-0.15,1.5,0.15,1.5
	c0.31-0.02,0.15-1.38,0.15-1.59c0-0.18,0.15-1.51-0.15-1.5C30.19,17.02,30.35,18.4,30.35,18.6z M35.73,17.17
	c-0.04-0.07-0.06-0.12-0.14-0.15c-0.22-0.09-0.62-0.01-0.85-0.01c-0.29,0-0.58,0-0.87,0c-0.35,0-0.7-0.31-0.68-0.68
	c0-0.04,0-0.09,0.01-0.13c-0.31,0.52-0.7,0.99-1.19,1.33c0.01,0.58-0.01,1.17-0.01,1.75c0,0.19,0.01,0.39,0,0.58
	c0.34,0,0.67,0,1.01-0.01c0.66,0,1.38,0.07,2.03-0.01c0.16-0.02,0.19-0.03,0.23-0.21c0.08-0.31,0.12-0.64,0.18-0.96
	c0.07-0.39,0.15-0.78,0.22-1.17c0.02-0.09,0.05-0.19,0.05-0.28C35.74,17.28,35.76,17.23,35.73,17.17z"/>
<path class="st1" d="M9.08,19.31c1.78,0.32,3.54-0.31,4.83-1.55c1.59-1.52,2.38-3.72,2.5-5.89c1.47-1.65,2.36-3.71,2-5.95
	c-0.24-1.49-1.01-2.86-1.98-3.99c-0.2-0.24-0.42-0.48-0.66-0.68c-0.42-0.37-1.04,0.25-0.62,0.62c0.6,0.52,1.04,1.11,1.44,1.77
	c0.82,1.34,1.25,2.92,0.9,4.48c-0.23,1.04-0.76,1.97-1.42,2.79c-0.25-0.44-0.56-0.86-0.9-1.23c-0.02-0.02-0.03-0.03-0.05-0.05
	c-0.02-0.02-0.04-0.04-0.06-0.07c-0.02-0.03-0.05-0.05-0.07-0.07C15,9.47,14.98,9.46,14.97,9.44c-0.02-0.02-0.05-0.05-0.07-0.07
	c-0.01-0.01-0.02-0.02-0.03-0.03c-0.01-0.01-0.01-0.01-0.02-0.02c-0.01-0.01-0.01-0.01-0.02-0.02c-0.01-0.01-0.02-0.02-0.03-0.03
	c-0.02-0.02-0.04-0.04-0.07-0.06c-0.01-0.01-0.03-0.03-0.04-0.04c-0.03-0.02-0.05-0.05-0.08-0.07c-0.01-0.01-0.02-0.02-0.03-0.03
	c-0.03-0.03-0.06-0.05-0.09-0.08c-0.01-0.01-0.01-0.01-0.02-0.02c-0.04-0.03-0.07-0.06-0.11-0.09c0,0-0.01,0-0.01-0.01
	c-0.49-0.39-1.02-0.72-1.59-0.96c-0.01,0-0.01-0.01-0.02-0.01c-0.01,0-0.01,0-0.02-0.01c-0.03-0.01-0.07-0.03-0.1-0.04
	c-0.02-0.01-0.04-0.02-0.06-0.03c-0.9-0.36-1.86-0.5-2.76-0.84C9.75,6.98,9.73,6.97,9.71,6.96C9.67,6.94,9.63,6.93,9.59,6.91
	C9.56,6.9,9.52,6.88,9.49,6.87C9.45,6.85,9.41,6.84,9.38,6.82C9.34,6.8,9.31,6.79,9.28,6.78C9.24,6.76,9.2,6.74,9.16,6.72
	C9.13,6.71,9.1,6.69,9.07,6.68C9.03,6.66,8.99,6.64,8.95,6.61C8.92,6.6,8.89,6.58,8.86,6.57C8.82,6.55,8.78,6.53,8.74,6.5
	C8.72,6.49,8.69,6.47,8.66,6.45C8.62,6.43,8.58,6.41,8.54,6.39C8.51,6.37,8.48,6.35,8.45,6.33C8.42,6.31,8.38,6.29,8.34,6.26
	C8.31,6.25,8.29,6.23,8.26,6.21C8.22,6.19,8.18,6.16,8.14,6.14C8.12,6.12,8.09,6.1,8.07,6.08C8.03,6.06,7.99,6.03,7.95,6.01
	C7.92,5.98,7.88,5.95,7.84,5.93C7.82,5.91,7.79,5.89,7.76,5.87C7.72,5.83,7.67,5.8,7.63,5.76C7.61,5.75,7.59,5.74,7.58,5.72
	C7.53,5.68,7.48,5.64,7.43,5.6C7.42,5.59,7.41,5.58,7.39,5.57C7.33,5.51,7.27,5.46,7.21,5.41C7.14,5.34,7.07,5.26,6.99,5.19
	C6.96,5.17,6.93,5.15,6.91,5.13c0,0,0,0,0,0C6.88,5.1,6.86,5.07,6.84,5.05C6.78,4.98,6.69,4.94,6.59,4.92c-0.03,0-0.05,0-0.08,0
	c-0.08,0-0.15,0.02-0.2,0.06C5.5,5.59,4.9,6.44,4.48,7.39C4.05,8.3,3.8,9.27,3.7,10.26c-0.06-0.07-0.12-0.14-0.18-0.22
	c-0.55-0.71-0.96-1.6-1.16-2.5C2.25,7.03,2.19,6.5,2.21,5.97c0-0.08,0.01-0.17,0.02-0.25c0-0.05,0.01-0.1,0.02-0.15
	c-0.01,0.14,0-0.03,0.02-0.11c0.06-0.33,0.15-0.66,0.27-0.98c0.02-0.04,0.03-0.08,0.05-0.12C2.58,4.33,2.59,4.32,2.6,4.3
	C2.65,4.2,2.69,4.1,2.74,4C2.85,3.8,2.97,3.6,3.11,3.41C3.14,3.37,3.16,3.33,3.19,3.3C3.2,3.29,3.26,3.22,3.27,3.2
	c0.09-0.11,0.19-0.22,0.29-0.32C3.65,2.79,3.74,2.7,3.83,2.62c0.05-0.04,0.1-0.09,0.15-0.13c0.03-0.03,0.06-0.05,0.09-0.08
	C4.08,2.4,4.09,2.4,4.09,2.39c0,0,0.01-0.01,0.02-0.01c0.53-0.4,1.12-0.7,1.71-0.91c2.22-0.79,4.7-0.68,7-0.36
	c0.23,0.03,0.47-0.06,0.54-0.3c0.06-0.2-0.07-0.5-0.3-0.54c-2.28-0.32-4.68-0.45-6.92,0.18C4.81,0.83,3.54,1.51,2.65,2.58
	C1.62,3.84,1.2,5.4,1.39,6.99c0.2,1.64,0.96,3.38,2.27,4.46c0.01,1.66,0.43,3.32,1.28,4.74C5.84,17.71,7.31,18.99,9.08,19.31z
	 M6.53,5.03C6.53,5.03,6.53,5.03,6.53,5.03c0.01,0,0.01,0,0.02,0c0,0,0.01,0,0.01,0c0.01,0,0.03,0,0.06,0
	c0.01,0.01,0.03,0.01,0.04,0.02c-0.04,0-0.09-0.01-0.11-0.01c0,0-0.01,0-0.01,0C6.53,5.03,6.53,5.03,6.53,5.03
	C6.52,5.03,6.52,5.03,6.53,5.03z M4.53,11.05c0.04-1.21,0.31-2.42,0.85-3.51C5.53,7.23,5.7,6.94,5.9,6.67c0,0,0.01-0.01,0.01-0.01
	C5.94,6.62,5.97,6.57,6,6.53C6.02,6.52,6.03,6.5,6.04,6.49c0.03-0.04,0.06-0.07,0.08-0.1c0.02-0.02,0.03-0.04,0.05-0.06
	c0.04-0.05,0.08-0.09,0.12-0.14C6.34,6.13,6.4,6.07,6.45,6.02C6.46,6.01,6.47,6,6.48,5.98c0.01-0.01,0.02-0.02,0.04-0.04
	c0.01,0.01,0.03,0.03,0.04,0.04c0.05,0.05,0.1,0.09,0.15,0.14c0.01,0.01,0.02,0.02,0.03,0.03c0.03,0.03,0.07,0.06,0.1,0.09
	c0.01,0.01,0.02,0.01,0.02,0.02c0,0,0.01,0.01,0.01,0.01C6.9,6.29,6.91,6.3,6.93,6.31C6.96,6.34,7,6.37,7.03,6.4
	c0.02,0.01,0.04,0.03,0.05,0.04C7.12,6.47,7.16,6.5,7.2,6.53c0.02,0.02,0.05,0.04,0.07,0.05C7.3,6.6,7.33,6.63,7.36,6.65
	c0.05,0.04,0.11,0.08,0.17,0.12c0,0,0,0,0,0c0.22,0.15,0.45,0.3,0.68,0.43c0.23,0.13,0.47,0.25,0.72,0.36
	c0.5,0.23,1.01,0.42,1.53,0.56c0.5,0.14,1,0.23,1.49,0.4c0.58,0.21,1.13,0.5,1.63,0.86c0,0,0,0,0.01,0c0.07,0.05,0.14,0.1,0.2,0.15
	c0.01,0.01,0.01,0.01,0.02,0.02c0.06,0.05,0.12,0.1,0.18,0.15c0.01,0.01,0.02,0.02,0.03,0.03c0.06,0.05,0.11,0.1,0.17,0.15
	c0.01,0.01,0.02,0.02,0.03,0.03c0.05,0.05,0.1,0.1,0.15,0.15c0.01,0.01,0.02,0.03,0.04,0.04c0.05,0.05,0.1,0.1,0.14,0.15
	c0.01,0.01,0.03,0.03,0.04,0.04c0.04,0.05,0.09,0.1,0.13,0.15c0.01,0.02,0.03,0.04,0.04,0.05c0.04,0.05,0.08,0.1,0.12,0.15
	c0.02,0.02,0.03,0.04,0.05,0.07c0.03,0.05,0.07,0.09,0.1,0.14c0.02,0.03,0.04,0.06,0.06,0.09c0.03,0.04,0.06,0.09,0.09,0.13
	c0.01,0.02,0.03,0.04,0.04,0.06c0.01,0.02,0.03,0.04,0.04,0.07c0.01,0.02,0.03,0.05,0.04,0.07c0.01,0.02,0.03,0.04,0.04,0.07
	c0.01,0.03,0.03,0.05,0.04,0.08c0.01,0.02,0.02,0.04,0.04,0.06c0.01,0.03,0.03,0.05,0.04,0.08c0.01,0.02,0.02,0.04,0.03,0.06
	c0.01,0.01,0.01,0.03,0.02,0.04c0.01,0.03,0.03,0.06,0.04,0.09c-0.08,1.75-0.64,3.54-1.79,4.89c-1,1.17-2.4,1.95-3.97,1.87
	c-1.53-0.08-2.89-1.03-3.77-2.25C4.94,14.77,4.47,12.89,4.53,11.05z M29.12,24.01c0,0.01-0.01,0.01-0.01,0.02
	c-0.01,0-0.01,0.01-0.02,0.01C29.1,24.02,29.12,24.01,29.12,24.01z M38.65,14.83c-0.04-1.17-1.4-1.87-2.37-1.2
	c-0.18,0.13-0.34,0.3-0.49,0.46c-0.06,0.06-0.12,0.12-0.19,0.19c-0.13-1.16-1.07-2.08-2.24-2.21c-0.23-0.03-0.47-0.01-0.7-0.01
	c-1.14,0-2.28,0-3.42,0c-3.28,0-6.55,0-9.83,0c-0.81,0-1.03,0-1.84,0c-0.56,0-0.56,0.87,0,0.87c2.08,0,3.59,0,5.67,0
	c2.96,0,5.92,0,8.89,0c0.32,0,0.63,0,0.95,0c0.9,0.01,1.67,0.7,1.67,1.62c0,0.18,0.09,0.3,0.21,0.37c-0.01,0.01-0.03,0.03-0.04,0.04
	c-0.91,0.91-1.82,1.82-2.73,2.73c-0.95,0.95-1.89,1.89-2.84,2.84c-2.11,0-4.22,0-6.32,0c-3.45,0-6.91,0-10.36,0
	c-0.79,0-1.58,0-2.37,0c-0.56,0-0.56,0.87,0,0.87c2.17,0,4.34,0,6.5,0c3.45,0,6.91,0,10.36,0c0.44,0,0.88,0,1.32,0
	c-0.31,0.31-0.62,0.62-0.93,0.93c-0.01,0.01-0.02,0.02-0.03,0.03c-0.05,0.03-0.09,0.07-0.11,0.12c-0.03,0.04-0.05,0.09-0.06,0.13
	c-0.35,0.81-0.7,1.63-1.04,2.44c-1.76,0-3.51,0-5.27,0c-2.91,0-5.83,0-8.74,0c-0.66,0-1.33,0-1.99,0c-0.56,0-0.56,0.87,0,0.87
	c1.83,0,3.66,0,5.49,0c2.91,0,5.83,0,8.74,0c0.56,0,1.13,0,1.69,0c0.12,0.12,0.31,0.17,0.52,0.08c0.43-0.19,0.86-0.38,1.29-0.57
	c0.5-0.22,1.03-0.41,1.51-0.66c0.14-0.08,0.25-0.21,0.36-0.32c0.26-0.27,0.52-0.54,0.79-0.81c1.47-1.5,2.93-3,4.4-4.51
	c0,1.14,0,2.28,0,3.42c0,1.7,0,3.4,0,5.1c0,0.07,0,0.14,0,0.21c0,0.04,0,0.08-0.01,0.12c0,0.04-0.01,0.12-0.01,0.13
	c-0.02,0.13-0.05,0.26-0.09,0.39c-0.07,0.22-0.07,0.24-0.17,0.43c-0.11,0.21-0.17,0.29-0.31,0.44c-0.32,0.33-0.76,0.53-1.25,0.62
	c-0.33,0.06-0.67,0.06-1,0.04c-0.23-0.01-0.42-0.03-0.6,0.13c-0.15,0.14-0.29,0.29-0.44,0.43c-0.64,0.63-1.28,1.26-1.93,1.9
	c-0.77,0.76-1.55,1.52-2.32,2.28c-0.25,0.25-0.51,0.49-0.77,0.74c0-1.44,0-2.88,0-4.31c0-0.25,0-0.51,0-0.76
	C26.2,30.2,26,30,25.77,30c-1.39,0-2.77,0-4.16,0c-2.63,0-5.26,0-7.89,0c-1.66,0-3.31,0.01-4.97,0c-1.16,0-2.08-0.87-2.08-2.04
	c0-0.79,0-1.58,0-2.38c0-2.23,0-3.41,0-5.64c0-0.05,0-0.09,0-0.14c0-0.56-0.87-0.56-0.87,0c0,2.01,0,2.97,0,4.98
	c0,0.99,0,1.99,0,2.98c0,0.43,0.03,0.86,0.19,1.27c0.35,0.9,1.14,1.6,2.09,1.78c0.51,0.1,1.07,0.06,1.59,0.06c0.96,0,1.92,0,2.88,0
	c2.68,0,5.35,0,8.03,0c1.11,0,2.23,0,3.34,0c0.46,0,0.94,0.02,1.4,0.01c0,1.64,0,3.28,0,4.92c0,0.25,0,0.51,0,0.76
	c0,0.38,0.48,0.57,0.74,0.31c1.81-1.79,3.63-3.58,5.44-5.36c0.21-0.21,0.42-0.42,0.64-0.63c1.4,0.1,2.89-0.32,3.51-1.7
	c0.22-0.5,0.31-1.01,0.31-1.55c0-2.3,0-4.6,0-6.89c0-0.83,0-1.66,0-2.49c0.1-0.1,0.2-0.2,0.3-0.31c0.61-0.62,1.22-1.25,1.82-1.87
	C38.42,15.73,38.67,15.33,38.65,14.83z M37.54,15.39c-0.52,0.54-1.05,1.07-1.57,1.61c-1.82,1.86-3.63,3.72-5.45,5.58
	c-0.32,0.33-0.64,0.65-0.96,0.98c-0.14,0.15-0.32,0.29-0.44,0.45c0.01,0,0.01,0-0.01,0.02c-0.01,0.01-0.01,0.01-0.02,0.02
	c-0.01,0.01-0.02,0.02-0.02,0.03c0-0.01,0.01-0.03,0.02-0.04c-0.01,0-0.02,0.01-0.03,0.01c-0.22,0.08-0.43,0.19-0.64,0.28
	c-0.35,0.16-0.71,0.31-1.06,0.47c0.26-0.61,0.52-1.21,0.78-1.82c0.56-0.56,1.12-1.12,1.69-1.69c0,0,0,0,0.01-0.01
	c0.68-0.68,1.36-1.36,2.04-2.04c1.55-1.55,3.11-3.11,4.66-4.66c0.23-0.23,0.49-0.44,0.84-0.3C37.87,14.47,37.87,15.05,37.54,15.39z
	 M16.53,16.05c0.66,0,0.52,0,1.18,0c2.91,0,5.83,0,8.74,0c1.83,0,3.66,0,5.49,0c0.56,0,0.56,0.87,0,0.87c-0.66,0-1.33,0-1.99,0
	c-2.91,0-5.83,0-8.74,0c-1.83,0-2.85,0-4.68,0C15.96,16.92,15.96,16.05,16.53,16.05z"/>
</svg>
